<?xml version="1.0" encoding="UTF-8" standalone="no"?>
<!-- Created with Inkscape (http://www.inkscape.org/) -->

<svg
   inkscape:version="1.2 (dc2aeda, 2022-05-15)"
   sodipodi:docname="iv-18.svg"
   width="12.72861mm"
   height="12.759766mm"
   viewBox="0 0 12.72861 12.759766"
   version="1.1"
   id="svg5"
   xmlns:inkscape="http://www.inkscape.org/namespaces/inkscape"
   xmlns:sodipodi="http://sodipodi.sourceforge.net/DTD/sodipodi-0.dtd"
   xmlns="http://www.w3.org/2000/svg"
   xmlns:svg="http://www.w3.org/2000/svg">
  <sodipodi:namedview
     id="namedview7"
     pagecolor="#ffffff"
     bordercolor="#666666"
     borderopacity="1.0"
     inkscape:showpageshadow="2"
     inkscape:pageopacity="0.0"
     inkscape:pagecheckerboard="0"
     inkscape:deskcolor="#d1d1d1"
     inkscape:document-units="mm"
     showgrid="false"
     inkscape:zoom="4.7572176"
     inkscape:cx="16.711449"
     inkscape:cy="22.702346"
     inkscape:window-width="1200"
     inkscape:window-height="480"
     inkscape:window-x="73"
     inkscape:window-y="66"
     inkscape:window-maximized="0"
     inkscape:current-layer="g15898" />
  <defs
     id="defs2" />
  <g
     inkscape:label="Layer 1"
     inkscape:groupmode="layer"
     id="layer1"
     transform="translate(-99.694778,-93.932482)">
    <path
       d="m 106.047,94.4527 a 5.86879,5.86702 0 1 0 5.8688,5.86701 5.86879,5.86702 0 0 0 -5.8688,-5.86701 z"
       style="fill:none;stroke:#000000;stroke-width:0.1;stroke-dasharray:none"
       id="path234" />
    <g
       id="g15898"
       transform="matrix(1,0,0,-1,0,200.62473)">
      <ellipse
         style="fill:none;stroke:#000000;stroke-width:0.1;stroke-dasharray:none"
         cx="-110.1004"
         cy="104.52121"
         transform="matrix(0.999766,4.40195e-6,1.49296e-5,-0.999765,216.12,198.95)"
         rx="0.47057351"
         ry="0.47050801"
         id="ellipse15852" />
      <ellipse
         style="fill:none;stroke:#000000;stroke-width:0.1;stroke-dasharray:none"
         cx="-110.1004"
         cy="104.52121"
         transform="matrix(0.974963,-0.221349,-0.221339,-0.974965,234.906,172.217)"
         rx="0.47057351"
         ry="0.47050801"
         id="ellipse15854" />
      <ellipse
         style="fill:none;stroke:#000000;stroke-width:0.1;stroke-dasharray:none"
         cx="-110.1004"
         cy="104.52121"
         transform="matrix(0.870032,-0.492552,-0.492543,-0.870036,250.207,132.057)"
         rx="0.47057351"
         ry="0.47050801"
         id="ellipse15856" />
      <ellipse
         style="fill:none;stroke:#000000;stroke-width:0.1;stroke-dasharray:none"
         cx="-110.1004"
         cy="104.52121"
         transform="matrix(0.692158,-0.721437,-0.721429,-0.692165,253.295,89.3173)"
         rx="0.47057351"
         ry="0.47050801"
         id="ellipse15858" />
      <ellipse
         style="fill:none;stroke:#000000;stroke-width:0.1;stroke-dasharray:none"
         cx="-110.1004"
         cy="104.52121"
         transform="matrix(0.450855,-0.892334,-0.892329,-0.450864,243.677,46.6361)"
         rx="0.47057351"
         ry="0.47050801"
         id="ellipse15860" />
      <ellipse
         style="fill:none;stroke:#000000;stroke-width:0.1;stroke-dasharray:none"
         cx="-110.1004"
         cy="104.52121"
         transform="matrix(0.240944,-0.970303,-0.9703,-0.240954,228.211,17.6672)"
         rx="0.47057351"
         ry="0.47050801"
         id="ellipse15862" />
      <ellipse
         style="fill:none;stroke:#000000;stroke-width:0.1;stroke-dasharray:none"
         cx="-110.1004"
         cy="104.52121"
         transform="matrix(-0.0499884,-0.99853,-0.99853,0.0499778,199.079,-14.2146)"
         rx="0.47057351"
         ry="0.47050801"
         id="ellipse15864" />
      <ellipse
         style="fill:none;stroke:#000000;stroke-width:0.1;stroke-dasharray:none"
         cx="-110.1004"
         cy="104.52121"
         transform="matrix(-0.33395,-0.942356,-0.942359,0.33394,162.344,-36.125)"
         rx="0.47057351"
         ry="0.47050801"
         id="ellipse15866" />
      <ellipse
         style="fill:none;stroke:#000000;stroke-width:0.1;stroke-dasharray:none"
         cx="-110.1004"
         cy="104.52121"
         transform="matrix(-0.593528,-0.804525,-0.804531,0.593519,120.181,-46.6686)"
         rx="0.47057351"
         ry="0.47050801"
         id="ellipse15868" />
      <ellipse
         style="fill:none;stroke:#000000;stroke-width:0.1;stroke-dasharray:none"
         cx="-110.1004"
         cy="104.52121"
         transform="matrix(-0.804357,-0.593761,-0.593769,0.804351,76.1185,-44.367)"
         rx="0.47057351"
         ry="0.47050801"
         id="ellipse15870" />
      <ellipse
         style="fill:none;stroke:#000000;stroke-width:0.1;stroke-dasharray:none"
         cx="-110.1004"
         cy="104.52121"
         transform="matrix(-0.91476,-0.403451,-0.403461,0.914755,45.5185,-34.1907)"
         rx="0.47057351"
         ry="0.47050801"
         id="ellipse15872" />
      <ellipse
         style="fill:none;stroke:#000000;stroke-width:0.1;stroke-dasharray:none"
         cx="-110.1004"
         cy="104.52121"
         transform="matrix(-0.991981,-0.124636,-0.124646,0.99198,9.47589,-11.2336)"
         rx="0.47057351"
         ry="0.47050801"
         id="ellipse15874" />
      <ellipse
         style="fill:none;stroke:#000000;stroke-width:0.1;stroke-dasharray:none"
         cx="-110.1004"
         cy="104.52121"
         transform="matrix(-0.985653,0.167423,0.167412,0.985654,-18.7235,21.4601)"
         rx="0.47057351"
         ry="0.47050801"
         id="ellipse15876" />
      <ellipse
         style="fill:none;stroke:#000000;stroke-width:0.1;stroke-dasharray:none"
         cx="-110.1004"
         cy="104.52121"
         transform="matrix(-0.892496,0.450542,0.450532,0.8925,-36.5256,61.8012)"
         rx="0.47057351"
         ry="0.47050801"
         id="ellipse15878" />
      <ellipse
         style="fill:none;stroke:#000000;stroke-width:0.1;stroke-dasharray:none"
         cx="-110.1004"
         cy="104.52121"
         transform="matrix(-0.722979,0.69055,0.690542,0.722986,-41.6294,104.977)"
         rx="0.47057351"
         ry="0.47050801"
         id="ellipse15880" />
      <ellipse
         style="fill:none;stroke:#000000;stroke-width:0.1;stroke-dasharray:none"
         cx="-110.1004"
         cy="104.52121"
         transform="matrix(-0.5566,0.830517,0.830511,0.556608,-36.9403,136.484)"
         rx="0.47057351"
         ry="0.47050801"
         id="ellipse15882" />
      <ellipse
         style="fill:none;stroke:#000000;stroke-width:0.1;stroke-dasharray:none"
         cx="-110.1004"
         cy="104.52121"
         transform="matrix(-0.293944,0.955586,0.955582,0.293954,-20.4933,176.186)"
         rx="0.47057351"
         ry="0.47050801"
         id="ellipse15884" />
      <ellipse
         style="fill:none;stroke:#000000;stroke-width:0.1;stroke-dasharray:none"
         cx="-110.1004"
         cy="104.52121"
         transform="matrix(0.0129517,0.999489,0.999489,-0.0129412,8.86129,211.47)"
         rx="0.47057351"
         ry="0.47050801"
         id="ellipse15886" />
      <ellipse
         style="fill:none;stroke:#000000;stroke-width:0.1;stroke-dasharray:none"
         cx="-110.1004"
         cy="104.52121"
         transform="matrix(0.308216,0.950891,0.950894,-0.308206,46.1576,235.373)"
         rx="0.47057351"
         ry="0.47050801"
         id="ellipse15888" />
      <ellipse
         style="fill:none;stroke:#000000;stroke-width:0.1;stroke-dasharray:none"
         cx="-110.1004"
         cy="104.52121"
         transform="matrix(0.568312,0.822349,0.822354,-0.568303,87.5024,246.942)"
         rx="0.47057351"
         ry="0.47050801"
         id="ellipse15890" />
      <ellipse
         style="fill:none;stroke:#000000;stroke-width:0.1;stroke-dasharray:none"
         cx="-110.1004"
         cy="104.52121"
         transform="matrix(0.714115,0.699486,0.699494,-0.714108,115.294,247.447)"
         rx="0.47057351"
         ry="0.47050801"
         id="ellipse15892" />
      <ellipse
         style="fill:none;stroke:#000000;stroke-width:0.1;stroke-dasharray:none"
         cx="-110.1004"
         cy="104.52121"
         transform="matrix(0.883712,0.467185,0.467194,-0.883707,156.851,238.744)"
         rx="0.47057351"
         ry="0.47050801"
         id="ellipse15894" />
    </g>
  </g>
</svg>
