M48
; DRILL file {KiCad (6.0.6-0)} date Monday, 18 July 2022 at 23:29:16
; FORMAT={-:-/ absolute / inch / decimal}
; #@! TF.CreationDate,2022-07-18T23:29:16+08:00
; #@! TF.GenerationSoftware,Kicad,Pcbnew,(6.0.6-0)
; #@! TF.FileFunction,Plated,1,2,PTH
FMAT,2
INCH
; #@! TA.AperFunction,Plated,PTH,ViaDrill
T1C0.0157
; #@! TA.AperFunction,Plated,PTH,ComponentDrill
T2C0.0177
; #@! TA.AperFunction,Plated,PTH,ComponentDrill
T3C0.0236
; #@! TA.AperFunction,Plated,PTH,ComponentDrill
T4C0.0394
; #@! TA.AperFunction,Plated,PTH,ComponentDrill
T5C0.0472
; #@! TA.AperFunction,Plated,PTH,ComponentDrill
T6C0.0669
%
G90
G05
T1
X2.2756Y-2.3189
X2.3189Y-2.7913
X2.8228Y-2.7283
X2.8661Y-2.6417
X2.874Y-2.4409
X3.1024Y-2.5354
X3.1024Y-2.689
X3.4961Y-2.4449
X3.5394Y-2.8386
X3.75Y-2.3602
X4.2008Y-2.6024
X4.2559Y-2.4449
X4.3169Y-2.4902
X4.3209Y-2.5689
X4.3209Y-2.6417
X4.378Y-2.6811
X4.378Y-2.7598
X4.378Y-2.8386
X4.378Y-2.9173
X4.7323Y-3.0315
X4.7677Y-3.0709
X5.1099Y-3.0891
X5.1517Y-3.0552
X5.1535Y-2.8031
X5.1535Y-2.8622
X5.1535Y-3.1186
X5.1713Y-2.6929
X5.1732Y-2.3839
X5.1732Y-2.4488
X5.1732Y-2.5236
X5.1732Y-2.6024
X5.6496Y-2.9409
X5.689Y-2.5394
X5.7008Y-2.2087
X5.7008Y-2.3898
X5.811Y-3.0315
X6.4449Y-2.2559
X6.4803Y-2.2559
X6.5157Y-2.2559
X6.5276Y-2.6575
X6.5669Y-2.6575
X6.5827Y-2.7913
X6.6063Y-2.6575
X6.626Y-2.7913
T4
X1.6142Y-2.8691
X1.6142Y-2.9691
X1.6142Y-3.0691
X1.7728Y-2.2264
X1.8728Y-2.2264
X1.9728Y-2.2264
X2.0728Y-2.2264
X2.385Y-2.2264
X2.485Y-2.2264
X2.585Y-2.2264
X2.685Y-2.2264
X3.0709Y-2.2283
X3.1709Y-2.2283
X3.2709Y-2.2283
X3.3709Y-2.2283
X3.4709Y-2.2283
X3.5709Y-2.2283
X3.6709Y-2.2283
X6.3504Y-2.3268
X6.3504Y-2.4268
X6.3504Y-2.5268
X6.3504Y-2.6268
X6.3504Y-2.7268
X6.3504Y-2.8268
X6.3504Y-2.9268
X6.3504Y-3.0268
T5
X3.0022Y-2.8386
X3.0022Y-2.9764
X4.3014Y-2.8386
T6
X3.1557Y-3.0728
X3.203Y-2.7421
X4.1006Y-2.7421
X4.1478Y-3.0728
T2
G00X6.7756Y-2.7569
M15
G01X6.8071Y-2.7569
M16
G05
G00X6.8071Y-3.0384
M15
G01X6.7756Y-3.0384
M16
G05
T3
G00X6.6238Y-2.2591
M15
G01X6.5805Y-2.2591
M16
G05
G00X6.6238Y-2.5992
M15
G01X6.5805Y-2.5992
M16
G05
G00X6.7821Y-2.2591
M15
G01X6.7506Y-2.2591
M16
G05
G00X6.7821Y-2.5992
M15
G01X6.7506Y-2.5992
M16
G05
T0
M30
