M48
; DRILL file {KiCad (6.0.6-0)} date Monday, 18 July 2022 at 23:30:04
; FORMAT={-:-/ absolute / inch / decimal}
; #@! TF.CreationDate,2022-07-18T23:30:04+08:00
; #@! TF.GenerationSoftware,Kicad,Pcbnew,(6.0.6-0)
; #@! TF.FileFunction,Plated,1,2,PTH
FMAT,2
INCH
; #@! TA.AperFunction,Plated,PTH,ViaDrill
T1C0.0157
; #@! TA.AperFunction,Plated,PTH,ComponentDrill
T2C0.0315
; #@! TA.AperFunction,Plated,PTH,ComponentDrill
T3C0.0394
%
G90
G05
T1
X4.37Y-3.06
X4.47Y-3.06
X4.5748Y-3.0595
X4.6Y-3.27
X4.675Y-3.06
X5.725Y-3.155
X5.725Y-3.68
X5.775Y-3.68
X5.825Y-3.68
X6.325Y-3.16
X6.325Y-3.69
X6.375Y-3.69
T2
X4.7657Y-3.505
X4.7814Y-3.5995
X4.7854Y-3.3869
X4.8149Y-3.6822
X4.8444Y-3.2885
X4.8641Y-3.7511
X4.9231Y-3.2196
X4.9428Y-3.8101
X5.0117Y-3.1704
X5.0314Y-3.8495
X5.12Y-3.1507
X5.12Y-3.8593
X5.2086Y-3.8495
X5.2283Y-3.1802
X5.2873Y-3.8101
X5.3169Y-3.2294
X5.3661Y-3.7511
X5.4054Y-3.2983
X5.4251Y-3.6723
X5.4546Y-3.3967
X5.4645Y-3.5936
X5.4743Y-3.505
T3
X4.1929Y-3.0992
X4.1929Y-3.1992
X4.1929Y-3.2992
X4.1929Y-3.3992
X4.1929Y-3.4992
X4.1929Y-3.5992
X4.1929Y-3.6992
X4.1929Y-3.7992
X4.3145Y-3.0049
X4.3145Y-3.8317
X4.423Y-2.9577
X4.523Y-2.9577
X4.623Y-2.9577
X4.723Y-2.9577
X4.823Y-2.9577
X4.923Y-2.9577
X5.023Y-2.9577
X5.123Y-2.9577
X6.0664Y-3.0049
X6.0664Y-3.8317
T0
M30
