%TF.GenerationSoftware,KiCad,Pcbnew,(6.0.6-0)*%
%TF.CreationDate,2022-07-18T23:30:02+08:00*%
%TF.ProjectId,VFD,5646442e-6b69-4636-9164-5f7063625858,rev?*%
%TF.SameCoordinates,Original*%
%TF.FileFunction,Copper,L2,Bot*%
%TF.FilePolarity,Positive*%
%FSLAX46Y46*%
G04 Gerber Fmt 4.6, Leading zero omitted, Abs format (unit mm)*
G04 Created by KiCad (PCBNEW (6.0.6-0)) date 2022-07-18 23:30:02*
%MOMM*%
%LPD*%
G01*
G04 APERTURE LIST*
G04 Aperture macros list*
%AMRoundRect*
0 Rectangle with rounded corners*
0 $1 Rounding radius*
0 $2 $3 $4 $5 $6 $7 $8 $9 X,Y pos of 4 corners*
0 Add a 4 corners polygon primitive as box body*
4,1,4,$2,$3,$4,$5,$6,$7,$8,$9,$2,$3,0*
0 Add four circle primitives for the rounded corners*
1,1,$1+$1,$2,$3*
1,1,$1+$1,$4,$5*
1,1,$1+$1,$6,$7*
1,1,$1+$1,$8,$9*
0 Add four rect primitives between the rounded corners*
20,1,$1+$1,$2,$3,$4,$5,0*
20,1,$1+$1,$4,$5,$6,$7,0*
20,1,$1+$1,$6,$7,$8,$9,0*
20,1,$1+$1,$8,$9,$2,$3,0*%
%AMFreePoly0*
4,1,13,0.835355,0.835355,0.850000,0.800000,0.850000,-0.800000,0.835355,-0.835355,0.800000,-0.850000,-0.800000,-0.850000,-0.835355,-0.835355,-0.850000,-0.800000,-0.850000,0.800000,-0.835355,0.835355,-0.800000,0.850000,0.800000,0.850000,0.835355,0.835355,0.835355,0.835355,$1*%
%AMFreePoly1*
4,1,17,0.366726,0.835355,0.835355,0.366726,0.850000,0.331371,0.850000,-0.331371,0.835355,-0.366727,0.366726,-0.835355,0.331371,-0.850000,-0.331371,-0.850000,-0.366727,-0.835355,-0.835355,-0.366726,-0.850000,-0.331371,-0.850000,0.331371,-0.835355,0.366726,-0.366727,0.835355,-0.331371,0.850000,0.331371,0.850000,0.366726,0.835355,0.366726,0.835355,$1*%
%AMFreePoly2*
4,1,17,0.428858,0.985355,0.985356,0.428858,1.000000,0.393503,1.000000,-0.393503,0.985356,-0.428858,0.428858,-0.985355,0.393503,-1.000000,-0.393503,-1.000000,-0.428858,-0.985356,-0.985355,-0.428858,-1.000000,-0.393503,-1.000000,0.393503,-0.985355,0.428858,-0.428858,0.985356,-0.393503,1.000000,0.393503,1.000000,0.428858,0.985355,0.428858,0.985355,$1*%
G04 Aperture macros list end*
%TA.AperFunction,ComponentPad*%
%ADD10C,1.600000*%
%TD*%
%TA.AperFunction,ComponentPad*%
%ADD11FreePoly0,180.000000*%
%TD*%
%TA.AperFunction,ComponentPad*%
%ADD12FreePoly1,180.000000*%
%TD*%
%TA.AperFunction,ComponentPad*%
%ADD13FreePoly0,90.000000*%
%TD*%
%TA.AperFunction,ComponentPad*%
%ADD14FreePoly1,90.000000*%
%TD*%
%TA.AperFunction,SMDPad,CuDef*%
%ADD15RoundRect,0.150000X-0.150000X0.750000X-0.150000X-0.750000X0.150000X-0.750000X0.150000X0.750000X0*%
%TD*%
%TA.AperFunction,ComponentPad*%
%ADD16FreePoly2,90.000000*%
%TD*%
%TA.AperFunction,ViaPad*%
%ADD17C,0.800000*%
%TD*%
%TA.AperFunction,Conductor*%
%ADD18C,0.500000*%
%TD*%
%TA.AperFunction,Conductor*%
%ADD19C,0.250000*%
%TD*%
G04 APERTURE END LIST*
D10*
%TO.P,U3,1,F*%
%TO.N,/F1*%
X121048000Y-89027000D03*
%TO.P,U3,2,DP*%
%TO.N,Net-(U2-Pad26)*%
X121448000Y-91427000D03*
%TO.P,U3,3,d*%
%TO.N,Net-(U2-Pad25)*%
X122298000Y-93527000D03*
%TO.P,U3,4,c*%
%TO.N,Net-(U2-Pad24)*%
X123548000Y-95277000D03*
%TO.P,U3,5,e*%
%TO.N,Net-(U2-Pad23)*%
X125548000Y-96777000D03*
%TO.P,U3,6,NC*%
%TO.N,unconnected-(U3-Pad6)*%
X127798000Y-97777000D03*
%TO.P,U3,7,NC*%
%TO.N,unconnected-(U3-Pad7)*%
X130048000Y-98027000D03*
%TO.P,U3,8,NC*%
%TO.N,unconnected-(U3-Pad8)*%
X132298000Y-97777000D03*
%TO.P,U3,9,g*%
%TO.N,Net-(U2-Pad22)*%
X134298000Y-96777000D03*
%TO.P,U3,10,b*%
%TO.N,Net-(U2-Pad21)*%
X136298000Y-95277000D03*
%TO.P,U3,11,f*%
%TO.N,Net-(U2-Pad20)*%
X137798000Y-93277000D03*
%TO.P,U3,12,a*%
%TO.N,Net-(U2-Pad19)*%
X138798000Y-91277000D03*
%TO.P,U3,13,F*%
%TO.N,/F2*%
X139048000Y-89027000D03*
%TO.P,U3,14,d9*%
%TO.N,Net-(U2-Pad11)*%
X138548000Y-86277000D03*
%TO.P,U3,15,d1*%
%TO.N,Net-(U2-Pad10)*%
X137298000Y-83777000D03*
%TO.P,U3,16,d3*%
%TO.N,Net-(U2-Pad9)*%
X135048000Y-82027000D03*
%TO.P,U3,17,d5*%
%TO.N,Net-(U2-Pad8)*%
X132798000Y-80777000D03*
%TO.P,U3,18,d8*%
%TO.N,Net-(U2-Pad7)*%
X130048000Y-80027000D03*
%TO.P,U3,19,d7*%
%TO.N,Net-(U2-Pad6)*%
X127298000Y-80527000D03*
%TO.P,U3,20,d6*%
%TO.N,Net-(U2-Pad5)*%
X125048000Y-81777000D03*
%TO.P,U3,21,d4*%
%TO.N,Net-(U2-Pad4)*%
X123048000Y-83527000D03*
%TO.P,U3,22,d2*%
%TO.N,Net-(U2-Pad3)*%
X121548000Y-86027000D03*
%TD*%
D11*
%TO.P,J2,1,Pin_1*%
%TO.N,/F2*%
X106500000Y-96500000D03*
D12*
%TO.P,J2,2,Pin_2*%
%TO.N,/F1*%
X106500000Y-93960000D03*
%TO.P,J2,3,Pin_3*%
%TO.N,VCC*%
X106500000Y-91420000D03*
%TO.P,J2,4,Pin_4*%
%TO.N,/BLANK*%
X106500000Y-88880000D03*
%TO.P,J2,5,Pin_5*%
%TO.N,/CLK*%
X106500000Y-86340000D03*
%TO.P,J2,6,Pin_6*%
%TO.N,/LOAD*%
X106500000Y-83800000D03*
%TO.P,J2,7,Pin_7*%
%TO.N,/DIN*%
X106500000Y-81260000D03*
%TO.P,J2,8,Pin_8*%
%TO.N,GNDREF*%
X106500000Y-78720000D03*
%TD*%
D13*
%TO.P,J1,1,Pin_1*%
%TO.N,/F2*%
X130125000Y-75125000D03*
D14*
%TO.P,J1,2,Pin_2*%
%TO.N,/F1*%
X127585000Y-75125000D03*
%TO.P,J1,3,Pin_3*%
%TO.N,VCC*%
X125045000Y-75125000D03*
%TO.P,J1,4,Pin_4*%
%TO.N,/BLANK*%
X122505000Y-75125000D03*
%TO.P,J1,5,Pin_5*%
%TO.N,/CLK*%
X119965000Y-75125000D03*
%TO.P,J1,6,Pin_6*%
%TO.N,/LOAD*%
X117425000Y-75125000D03*
%TO.P,J1,7,Pin_7*%
%TO.N,/DIN*%
X114885000Y-75125000D03*
%TO.P,J1,8,Pin_8*%
%TO.N,GNDREF*%
X112345000Y-75125000D03*
%TD*%
D15*
%TO.P,U2,1,VBB*%
%TO.N,/OUT+*%
X145415000Y-82200000D03*
%TO.P,U2,2,DOUT*%
%TO.N,unconnected-(U2-Pad2)*%
X146685000Y-82200000D03*
%TO.P,U2,3,OUT19*%
%TO.N,Net-(U2-Pad3)*%
X147955000Y-82200000D03*
%TO.P,U2,4,OUT18*%
%TO.N,Net-(U2-Pad4)*%
X149225000Y-82200000D03*
%TO.P,U2,5,OUT17*%
%TO.N,Net-(U2-Pad5)*%
X150495000Y-82200000D03*
%TO.P,U2,6,PUT16*%
%TO.N,Net-(U2-Pad6)*%
X151765000Y-82200000D03*
%TO.P,U2,7,OUT15*%
%TO.N,Net-(U2-Pad7)*%
X153035000Y-82200000D03*
%TO.P,U2,8,OUT14*%
%TO.N,Net-(U2-Pad8)*%
X154305000Y-82200000D03*
%TO.P,U2,9,OUT13*%
%TO.N,Net-(U2-Pad9)*%
X155575000Y-82200000D03*
%TO.P,U2,10,OUT12*%
%TO.N,Net-(U2-Pad10)*%
X156845000Y-82200000D03*
%TO.P,U2,11,OUT11*%
%TO.N,Net-(U2-Pad11)*%
X158115000Y-82200000D03*
%TO.P,U2,12,OUT10*%
%TO.N,unconnected-(U2-Pad12)*%
X159385000Y-82200000D03*
%TO.P,U2,13,BLANK*%
%TO.N,/BLANK*%
X160655000Y-82200000D03*
%TO.P,U2,14,GND*%
%TO.N,GNDREF*%
X161925000Y-82200000D03*
%TO.P,U2,15,CLK*%
%TO.N,/CLK*%
X161925000Y-91800000D03*
%TO.P,U2,16,LOAD*%
%TO.N,/LOAD*%
X160655000Y-91800000D03*
%TO.P,U2,17,OUT9*%
%TO.N,unconnected-(U2-Pad17)*%
X159385000Y-91800000D03*
%TO.P,U2,18,OUT8*%
%TO.N,unconnected-(U2-Pad18)*%
X158115000Y-91800000D03*
%TO.P,U2,19,OUT7*%
%TO.N,Net-(U2-Pad19)*%
X156845000Y-91800000D03*
%TO.P,U2,20,OUT6*%
%TO.N,Net-(U2-Pad20)*%
X155575000Y-91800000D03*
%TO.P,U2,21,OUT5*%
%TO.N,Net-(U2-Pad21)*%
X154305000Y-91800000D03*
%TO.P,U2,22,OUT4*%
%TO.N,Net-(U2-Pad22)*%
X153035000Y-91800000D03*
%TO.P,U2,23,OUT3*%
%TO.N,Net-(U2-Pad23)*%
X151765000Y-91800000D03*
%TO.P,U2,24,OUT2*%
%TO.N,Net-(U2-Pad24)*%
X150495000Y-91800000D03*
%TO.P,U2,25,OUT1*%
%TO.N,Net-(U2-Pad25)*%
X149225000Y-91800000D03*
%TO.P,U2,26,OUT0*%
%TO.N,Net-(U2-Pad26)*%
X147955000Y-91800000D03*
%TO.P,U2,27,DIN*%
%TO.N,/DIN*%
X146685000Y-91800000D03*
%TO.P,U2,28,VCC*%
%TO.N,VCC*%
X145415000Y-91800000D03*
%TD*%
D16*
%TO.P,U1,1,Pin_1*%
%TO.N,VCC*%
X109587500Y-97325000D03*
%TO.P,U1,2,Pin_2*%
%TO.N,GNDREF*%
X109587500Y-76325000D03*
%TO.P,U1,3,Pin_3*%
X154087500Y-76325000D03*
%TO.P,U1,4,Pin_4*%
%TO.N,/OUT+*%
X154087500Y-97325000D03*
%TD*%
D17*
%TO.N,/BLANK*%
X118743957Y-77722957D03*
X160655000Y-80264000D03*
%TO.N,/CLK*%
X161925000Y-93726000D03*
X116200234Y-77711500D03*
%TO.N,/LOAD*%
X113538000Y-77724000D03*
X160655000Y-93726000D03*
%TO.N,/DIN*%
X146685000Y-93472000D03*
X110998000Y-77724000D03*
%TO.N,VCC*%
X116840000Y-83058000D03*
X145415000Y-93472000D03*
%TO.N,/OUT+*%
X145415000Y-80137000D03*
%TO.N,Net-(U2-Pad26)*%
X147955000Y-93472000D03*
%TD*%
D18*
%TO.N,GNDREF*%
X109587500Y-76325000D02*
X107425000Y-76325000D01*
X161925000Y-78867000D02*
X161925000Y-82200000D01*
X154087500Y-76325000D02*
X159383000Y-76325000D01*
X159383000Y-76325000D02*
X161925000Y-78867000D01*
X110787500Y-75125000D02*
X109587500Y-76325000D01*
X112345000Y-75125000D02*
X110787500Y-75125000D01*
X107425000Y-76325000D02*
X106500000Y-77250000D01*
X106500000Y-77250000D02*
X106500000Y-78720000D01*
D19*
%TO.N,/BLANK*%
X115443000Y-78486000D02*
X117980914Y-78486000D01*
X122505000Y-75125000D02*
X121049000Y-76581000D01*
X106500000Y-88880000D02*
X107950000Y-87430000D01*
X119885914Y-76581000D02*
X118743957Y-77722957D01*
X121049000Y-76581000D02*
X119885914Y-76581000D01*
X107950000Y-85979000D02*
X115443000Y-78486000D01*
X117980914Y-78486000D02*
X118743957Y-77722957D01*
X160655000Y-80264000D02*
X160655000Y-82200000D01*
X107950000Y-87430000D02*
X107950000Y-85979000D01*
%TO.N,/CLK*%
X119965000Y-75125000D02*
X117378500Y-77711500D01*
X161925000Y-93726000D02*
X161925000Y-91800000D01*
X115128500Y-77711500D02*
X116200234Y-77711500D01*
X106500000Y-86340000D02*
X115128500Y-77711500D01*
X117378500Y-77711500D02*
X116200234Y-77711500D01*
%TO.N,/LOAD*%
X117425000Y-75125000D02*
X115969000Y-76581000D01*
X160655000Y-93726000D02*
X160655000Y-91800000D01*
X113538000Y-77724000D02*
X107462000Y-83800000D01*
X115969000Y-76581000D02*
X114681000Y-76581000D01*
X107462000Y-83800000D02*
X106500000Y-83800000D01*
X114681000Y-76581000D02*
X113538000Y-77724000D01*
%TO.N,/DIN*%
X113556000Y-76454000D02*
X114885000Y-75125000D01*
X110973500Y-77699500D02*
X110998000Y-77724000D01*
X112268000Y-76454000D02*
X113556000Y-76454000D01*
X110060500Y-77699500D02*
X110973500Y-77699500D01*
X106500000Y-81260000D02*
X110060500Y-77699500D01*
X110998000Y-77724000D02*
X112268000Y-76454000D01*
X146685000Y-93472000D02*
X146685000Y-91800000D01*
D18*
%TO.N,/F2*%
X115948089Y-87632911D02*
X115572911Y-87632911D01*
X106705822Y-96500000D02*
X106500000Y-96500000D01*
X115763411Y-87442411D02*
X115572911Y-87632911D01*
X115572911Y-87632911D02*
X106705822Y-96500000D01*
X129921000Y-89027000D02*
X128524000Y-87630000D01*
X139048000Y-89027000D02*
X129921000Y-89027000D01*
X115951000Y-87630000D02*
X115763411Y-87442411D01*
X127642501Y-77607499D02*
X125598323Y-77607499D01*
X130125000Y-75125000D02*
X127642501Y-77607499D01*
X128524000Y-87630000D02*
X115951000Y-87630000D01*
X125598323Y-77607499D02*
X115763411Y-87442411D01*
X115951000Y-87630000D02*
X115948089Y-87632911D01*
%TO.N,/F1*%
X125852002Y-76857998D02*
X124691002Y-76857998D01*
X124691002Y-76857998D02*
X107589000Y-93960000D01*
X107589000Y-93960000D02*
X106500000Y-93960000D01*
X127585000Y-75125000D02*
X125852002Y-76857998D01*
%TO.N,VCC*%
X104500000Y-99000000D02*
X105000000Y-99500000D01*
X106500000Y-91420000D02*
X104830000Y-91420000D01*
X109500000Y-99500000D02*
X109587500Y-99412500D01*
X116840000Y-83058000D02*
X117112000Y-83058000D01*
X104830000Y-91420000D02*
X104500000Y-91750000D01*
X116840000Y-83312000D02*
X116840000Y-83058000D01*
X109587500Y-99412500D02*
X109587500Y-97325000D01*
X145415000Y-91800000D02*
X145415000Y-93472000D01*
X117112000Y-83058000D02*
X125045000Y-75125000D01*
X108732000Y-91420000D02*
X116840000Y-83312000D01*
X104500000Y-91750000D02*
X104500000Y-99000000D01*
X106500000Y-91420000D02*
X108732000Y-91420000D01*
X105000000Y-99500000D02*
X109500000Y-99500000D01*
%TO.N,/OUT+*%
X145415000Y-80137000D02*
X145415000Y-82200000D01*
D19*
%TO.N,Net-(U2-Pad5)*%
X129354397Y-78352499D02*
X128458896Y-79248000D01*
X128458896Y-79248000D02*
X126915298Y-79248000D01*
X150495000Y-82572462D02*
X148866462Y-84201000D01*
X125048000Y-81115298D02*
X125048000Y-81777000D01*
X138042499Y-78352499D02*
X129354397Y-78352499D01*
X150495000Y-82200000D02*
X150495000Y-82572462D01*
X143891000Y-84201000D02*
X138042499Y-78352499D01*
X126915298Y-79248000D02*
X125048000Y-81115298D01*
X148866462Y-84201000D02*
X143891000Y-84201000D01*
%TO.N,Net-(U2-Pad6)*%
X150009462Y-84328000D02*
X149987000Y-84328000D01*
X127886297Y-80527000D02*
X127298000Y-80527000D01*
X149606000Y-84709000D02*
X143510000Y-84709000D01*
X149987000Y-84328000D02*
X149606000Y-84709000D01*
X143510000Y-84709000D02*
X137653000Y-78852000D01*
X129561297Y-78852000D02*
X127886297Y-80527000D01*
X151765000Y-82200000D02*
X151765000Y-82572462D01*
X151765000Y-82572462D02*
X150009462Y-84328000D01*
X137653000Y-78852000D02*
X129561297Y-78852000D01*
%TO.N,Net-(U2-Pad7)*%
X130473000Y-79602000D02*
X130048000Y-80027000D01*
X143271804Y-85217000D02*
X137656803Y-79602000D01*
X153035000Y-82572462D02*
X150390462Y-85217000D01*
X137656803Y-79602000D02*
X130473000Y-79602000D01*
X153035000Y-82200000D02*
X153035000Y-82572462D01*
X150390462Y-85217000D02*
X143271804Y-85217000D01*
%TO.N,Net-(U2-Pad8)*%
X154305000Y-82804000D02*
X154305000Y-82200000D01*
X132798000Y-80777000D02*
X138125401Y-80777000D01*
X143073402Y-85725000D02*
X151384000Y-85725000D01*
X151384000Y-85725000D02*
X154305000Y-82804000D01*
X138125401Y-80777000D02*
X143073402Y-85725000D01*
%TO.N,Net-(U2-Pad9)*%
X155575000Y-82572462D02*
X151905963Y-86241499D01*
X142883499Y-86241499D02*
X138669000Y-82027000D01*
X138669000Y-82027000D02*
X135048000Y-82027000D01*
X151905963Y-86241499D02*
X142883499Y-86241499D01*
X155575000Y-82200000D02*
X155575000Y-82572462D01*
%TO.N,Net-(U2-Pad10)*%
X152908000Y-86741000D02*
X142621000Y-86741000D01*
X142621000Y-86741000D02*
X139657000Y-83777000D01*
X139657000Y-83777000D02*
X137298000Y-83777000D01*
X156845000Y-82804000D02*
X152908000Y-86741000D01*
X156845000Y-82200000D02*
X156845000Y-82804000D01*
%TO.N,Net-(U2-Pad11)*%
X141395000Y-86277000D02*
X142367000Y-87249000D01*
X158115000Y-82677000D02*
X153543000Y-87249000D01*
X158115000Y-82200000D02*
X158115000Y-82677000D01*
X138548000Y-86277000D02*
X141395000Y-86277000D01*
X153543000Y-87249000D02*
X142367000Y-87249000D01*
%TO.N,Net-(U2-Pad3)*%
X146312499Y-77224499D02*
X129023501Y-77224499D01*
X121548000Y-82541000D02*
X121548000Y-86027000D01*
X147955000Y-82200000D02*
X147955000Y-78867000D01*
X147955000Y-78867000D02*
X146312499Y-77224499D01*
X129023501Y-77224499D02*
X128016000Y-78232000D01*
X128016000Y-78232000D02*
X125857000Y-78232000D01*
X125857000Y-78232000D02*
X121548000Y-82541000D01*
%TO.N,Net-(U2-Pad4)*%
X128260496Y-78740000D02*
X126309402Y-78740000D01*
X148463000Y-83693000D02*
X144089402Y-83693000D01*
X149225000Y-82931000D02*
X148463000Y-83693000D01*
X129149496Y-77851000D02*
X128260496Y-78740000D01*
X149225000Y-82200000D02*
X149225000Y-82931000D01*
X138247402Y-77851000D02*
X129149496Y-77851000D01*
X144089402Y-83693000D02*
X138247402Y-77851000D01*
X126309402Y-78740000D02*
X123048000Y-82001401D01*
X123048000Y-82001401D02*
X123048000Y-83527000D01*
%TO.N,Net-(U2-Pad19)*%
X138798000Y-91238795D02*
X138798000Y-91277000D01*
X142254297Y-87782498D02*
X138798000Y-91238795D01*
X156845000Y-89281000D02*
X155346498Y-87782498D01*
X156845000Y-91800000D02*
X156845000Y-89281000D01*
X155346498Y-87782498D02*
X142254297Y-87782498D01*
%TO.N,Net-(U2-Pad20)*%
X142461198Y-88281999D02*
X140097998Y-90645200D01*
X139260000Y-93277000D02*
X137798000Y-93277000D01*
X140097998Y-92439002D02*
X139260000Y-93277000D01*
X140097998Y-90645200D02*
X140097998Y-92439002D01*
X155575000Y-89154000D02*
X154702998Y-88281998D01*
X154702998Y-88281998D02*
X142461198Y-88281999D01*
X155575000Y-91800000D02*
X155575000Y-89154000D01*
%TO.N,Net-(U2-Pad21)*%
X142668099Y-88781499D02*
X140597499Y-90852100D01*
X153551499Y-88781499D02*
X142668099Y-88781499D01*
X138276000Y-95277000D02*
X136298000Y-95277000D01*
X140597499Y-90852100D02*
X140597499Y-92955501D01*
X140597499Y-92955501D02*
X138276000Y-95277000D01*
X154305000Y-91800000D02*
X154305000Y-89535000D01*
X154305000Y-89535000D02*
X153551499Y-88781499D01*
%TO.N,Net-(U2-Pad22)*%
X153162000Y-91673000D02*
X153162000Y-90170000D01*
X142875000Y-89281000D02*
X141097000Y-91059000D01*
X141097000Y-93472000D02*
X137792000Y-96777000D01*
X141097000Y-91059000D02*
X141097000Y-93472000D01*
X137792000Y-96777000D02*
X134298000Y-96777000D01*
X152273000Y-89281000D02*
X142875000Y-89281000D01*
X153035000Y-91800000D02*
X153162000Y-91673000D01*
X153162000Y-90170000D02*
X152273000Y-89281000D01*
%TO.N,Net-(U2-Pad23)*%
X151765000Y-90297000D02*
X151257000Y-89789000D01*
X141605000Y-91297197D02*
X141605000Y-93726000D01*
X141605000Y-93726000D02*
X136127002Y-99203998D01*
X127563294Y-99203998D02*
X125548000Y-97188704D01*
X151765000Y-91800000D02*
X151765000Y-90297000D01*
X143113197Y-89789000D02*
X141605000Y-91297197D01*
X151257000Y-89789000D02*
X143113197Y-89789000D01*
X136127002Y-99203998D02*
X127563294Y-99203998D01*
X125548000Y-97188704D02*
X125548000Y-96777000D01*
%TO.N,Net-(U2-Pad24)*%
X123548000Y-95277000D02*
X123548000Y-96751000D01*
X123548000Y-96751000D02*
X126500499Y-99703499D01*
X150241000Y-90297000D02*
X150495000Y-90551000D01*
X150495000Y-90551000D02*
X150495000Y-91800000D01*
X126500499Y-99703499D02*
X136516501Y-99703499D01*
X143311598Y-90297000D02*
X150241000Y-90297000D01*
X142375499Y-93844501D02*
X142375499Y-91233099D01*
X142375499Y-91233099D02*
X143311598Y-90297000D01*
X136516501Y-99703499D02*
X142375499Y-93844501D01*
%TO.N,Net-(U2-Pad25)*%
X142748000Y-94361000D02*
X136906000Y-100203000D01*
X124841000Y-100203000D02*
X122298000Y-97660000D01*
X122298000Y-97660000D02*
X122298000Y-93527000D01*
X136906000Y-100203000D02*
X124841000Y-100203000D01*
X149225000Y-93345000D02*
X148209000Y-94361000D01*
X148209000Y-94361000D02*
X142748000Y-94361000D01*
X149225000Y-91800000D02*
X149225000Y-93345000D01*
%TO.N,Net-(U2-Pad26)*%
X147955000Y-93472000D02*
X147955000Y-91800000D01*
%TD*%
M02*
