%TF.GenerationSoftware,KiCad,Pcbnew,(6.0.6-0)*%
%TF.CreationDate,2022-07-18T23:30:02+08:00*%
%TF.ProjectId,VFD,5646442e-6b69-4636-9164-5f7063625858,rev?*%
%TF.SameCoordinates,Original*%
%TF.FileFunction,Copper,L1,Top*%
%TF.FilePolarity,Positive*%
%FSLAX46Y46*%
G04 Gerber Fmt 4.6, Leading zero omitted, Abs format (unit mm)*
G04 Created by KiCad (PCBNEW (6.0.6-0)) date 2022-07-18 23:30:02*
%MOMM*%
%LPD*%
G01*
G04 APERTURE LIST*
G04 Aperture macros list*
%AMFreePoly0*
4,1,13,0.835355,0.835355,0.850000,0.800000,0.850000,-0.800000,0.835355,-0.835355,0.800000,-0.850000,-0.800000,-0.850000,-0.835355,-0.835355,-0.850000,-0.800000,-0.850000,0.800000,-0.835355,0.835355,-0.800000,0.850000,0.800000,0.850000,0.835355,0.835355,0.835355,0.835355,$1*%
%AMFreePoly1*
4,1,17,0.366726,0.835355,0.835355,0.366726,0.850000,0.331371,0.850000,-0.331371,0.835355,-0.366727,0.366726,-0.835355,0.331371,-0.850000,-0.331371,-0.850000,-0.366727,-0.835355,-0.835355,-0.366726,-0.850000,-0.331371,-0.850000,0.331371,-0.835355,0.366726,-0.366727,0.835355,-0.331371,0.850000,0.331371,0.850000,0.366726,0.835355,0.366726,0.835355,$1*%
%AMFreePoly2*
4,1,17,0.428858,0.985355,0.985356,0.428858,1.000000,0.393503,1.000000,-0.393503,0.985356,-0.428858,0.428858,-0.985355,0.393503,-1.000000,-0.393503,-1.000000,-0.428858,-0.985356,-0.985355,-0.428858,-1.000000,-0.393503,-1.000000,0.393503,-0.985355,0.428858,-0.428858,0.985356,-0.393503,1.000000,0.393503,1.000000,0.428858,0.985355,0.428858,0.985355,$1*%
G04 Aperture macros list end*
%TA.AperFunction,ComponentPad*%
%ADD10C,1.600000*%
%TD*%
%TA.AperFunction,ComponentPad*%
%ADD11FreePoly0,180.000000*%
%TD*%
%TA.AperFunction,ComponentPad*%
%ADD12FreePoly1,180.000000*%
%TD*%
%TA.AperFunction,ComponentPad*%
%ADD13FreePoly0,90.000000*%
%TD*%
%TA.AperFunction,ComponentPad*%
%ADD14FreePoly1,90.000000*%
%TD*%
%TA.AperFunction,ComponentPad*%
%ADD15FreePoly2,90.000000*%
%TD*%
%TA.AperFunction,ViaPad*%
%ADD16C,0.800000*%
%TD*%
%TA.AperFunction,Conductor*%
%ADD17C,0.500000*%
%TD*%
%TA.AperFunction,Conductor*%
%ADD18C,0.250000*%
%TD*%
G04 APERTURE END LIST*
D10*
%TO.P,U3,1,F*%
%TO.N,/F1*%
X121048000Y-89027000D03*
%TO.P,U3,2,DP*%
%TO.N,Net-(U2-Pad26)*%
X121448000Y-91427000D03*
%TO.P,U3,3,d*%
%TO.N,Net-(U2-Pad25)*%
X122298000Y-93527000D03*
%TO.P,U3,4,c*%
%TO.N,Net-(U2-Pad24)*%
X123548000Y-95277000D03*
%TO.P,U3,5,e*%
%TO.N,Net-(U2-Pad23)*%
X125548000Y-96777000D03*
%TO.P,U3,6,NC*%
%TO.N,unconnected-(U3-Pad6)*%
X127798000Y-97777000D03*
%TO.P,U3,7,NC*%
%TO.N,unconnected-(U3-Pad7)*%
X130048000Y-98027000D03*
%TO.P,U3,8,NC*%
%TO.N,unconnected-(U3-Pad8)*%
X132298000Y-97777000D03*
%TO.P,U3,9,g*%
%TO.N,Net-(U2-Pad22)*%
X134298000Y-96777000D03*
%TO.P,U3,10,b*%
%TO.N,Net-(U2-Pad21)*%
X136298000Y-95277000D03*
%TO.P,U3,11,f*%
%TO.N,Net-(U2-Pad20)*%
X137798000Y-93277000D03*
%TO.P,U3,12,a*%
%TO.N,Net-(U2-Pad19)*%
X138798000Y-91277000D03*
%TO.P,U3,13,F*%
%TO.N,/F2*%
X139048000Y-89027000D03*
%TO.P,U3,14,d9*%
%TO.N,Net-(U2-Pad11)*%
X138548000Y-86277000D03*
%TO.P,U3,15,d1*%
%TO.N,Net-(U2-Pad10)*%
X137298000Y-83777000D03*
%TO.P,U3,16,d3*%
%TO.N,Net-(U2-Pad9)*%
X135048000Y-82027000D03*
%TO.P,U3,17,d5*%
%TO.N,Net-(U2-Pad8)*%
X132798000Y-80777000D03*
%TO.P,U3,18,d8*%
%TO.N,Net-(U2-Pad7)*%
X130048000Y-80027000D03*
%TO.P,U3,19,d7*%
%TO.N,Net-(U2-Pad6)*%
X127298000Y-80527000D03*
%TO.P,U3,20,d6*%
%TO.N,Net-(U2-Pad5)*%
X125048000Y-81777000D03*
%TO.P,U3,21,d4*%
%TO.N,Net-(U2-Pad4)*%
X123048000Y-83527000D03*
%TO.P,U3,22,d2*%
%TO.N,Net-(U2-Pad3)*%
X121548000Y-86027000D03*
%TD*%
D11*
%TO.P,J2,1,Pin_1*%
%TO.N,/F2*%
X106500000Y-96500000D03*
D12*
%TO.P,J2,2,Pin_2*%
%TO.N,/F1*%
X106500000Y-93960000D03*
%TO.P,J2,3,Pin_3*%
%TO.N,VCC*%
X106500000Y-91420000D03*
%TO.P,J2,4,Pin_4*%
%TO.N,/BLANK*%
X106500000Y-88880000D03*
%TO.P,J2,5,Pin_5*%
%TO.N,/CLK*%
X106500000Y-86340000D03*
%TO.P,J2,6,Pin_6*%
%TO.N,/LOAD*%
X106500000Y-83800000D03*
%TO.P,J2,7,Pin_7*%
%TO.N,/DIN*%
X106500000Y-81260000D03*
%TO.P,J2,8,Pin_8*%
%TO.N,GNDREF*%
X106500000Y-78720000D03*
%TD*%
D13*
%TO.P,J1,1,Pin_1*%
%TO.N,/F2*%
X130125000Y-75125000D03*
D14*
%TO.P,J1,2,Pin_2*%
%TO.N,/F1*%
X127585000Y-75125000D03*
%TO.P,J1,3,Pin_3*%
%TO.N,VCC*%
X125045000Y-75125000D03*
%TO.P,J1,4,Pin_4*%
%TO.N,/BLANK*%
X122505000Y-75125000D03*
%TO.P,J1,5,Pin_5*%
%TO.N,/CLK*%
X119965000Y-75125000D03*
%TO.P,J1,6,Pin_6*%
%TO.N,/LOAD*%
X117425000Y-75125000D03*
%TO.P,J1,7,Pin_7*%
%TO.N,/DIN*%
X114885000Y-75125000D03*
%TO.P,J1,8,Pin_8*%
%TO.N,GNDREF*%
X112345000Y-75125000D03*
%TD*%
D15*
%TO.P,U1,1,Pin_1*%
%TO.N,VCC*%
X109587500Y-97325000D03*
%TO.P,U1,2,Pin_2*%
%TO.N,GNDREF*%
X109587500Y-76325000D03*
%TO.P,U1,3,Pin_3*%
X154087500Y-76325000D03*
%TO.P,U1,4,Pin_4*%
%TO.N,/OUT+*%
X154087500Y-97325000D03*
%TD*%
D16*
%TO.N,/BLANK*%
X118743957Y-77722957D03*
X160655000Y-80264000D03*
%TO.N,/CLK*%
X161925000Y-93726000D03*
X116200234Y-77711500D03*
%TO.N,/LOAD*%
X113538000Y-77724000D03*
X160655000Y-93726000D03*
%TO.N,/DIN*%
X146685000Y-93472000D03*
X110998000Y-77724000D03*
%TO.N,VCC*%
X116840000Y-83058000D03*
X145415000Y-93472000D03*
%TO.N,/OUT+*%
X145415000Y-80137000D03*
%TO.N,Net-(U2-Pad26)*%
X147955000Y-93472000D03*
%TD*%
D17*
%TO.N,GNDREF*%
X109756758Y-76494258D02*
X109587500Y-76325000D01*
X154087500Y-76325000D02*
X153931005Y-76481495D01*
X121615762Y-76494258D02*
X109756758Y-76494258D01*
X121628525Y-76481495D02*
X121615762Y-76494258D01*
X153931005Y-76481495D02*
X121628525Y-76481495D01*
D18*
%TO.N,/BLANK*%
X152107400Y-77232998D02*
X155138402Y-80264000D01*
X155138402Y-80264000D02*
X160655000Y-80264000D01*
X119233916Y-77232998D02*
X152107400Y-77232998D01*
X118743957Y-77722957D02*
X119233916Y-77232998D01*
%TO.N,/CLK*%
X117211500Y-77711500D02*
X116200234Y-77711500D01*
X118250000Y-78750000D02*
X117211500Y-77711500D01*
X119421598Y-78750000D02*
X118250000Y-78750000D01*
X161925000Y-93726000D02*
X145939998Y-77740998D01*
X145939998Y-77740998D02*
X120430600Y-77740998D01*
X120430600Y-77740998D02*
X119421598Y-78750000D01*
%TO.N,/LOAD*%
X113538000Y-77724000D02*
X113564000Y-77750000D01*
X120637501Y-78240499D02*
X119378000Y-79500000D01*
X114750000Y-77750000D02*
X116500000Y-79500000D01*
X113564000Y-77750000D02*
X114750000Y-77750000D01*
X123452499Y-78240499D02*
X145169499Y-78240499D01*
X123452499Y-78240499D02*
X120637501Y-78240499D01*
X145169499Y-78240499D02*
X160655000Y-93726000D01*
X116500000Y-79500000D02*
X119378000Y-79500000D01*
%TO.N,/DIN*%
X114500000Y-80000000D02*
X112250000Y-77750000D01*
X111024000Y-77750000D02*
X110998000Y-77724000D01*
X139700000Y-78740000D02*
X121158000Y-78740000D01*
X119898000Y-80000000D02*
X114500000Y-80000000D01*
X112250000Y-77750000D02*
X111024000Y-77750000D01*
X121158000Y-78740000D02*
X119898000Y-80000000D01*
X146685000Y-85725000D02*
X139700000Y-78740000D01*
X146685000Y-93472000D02*
X146685000Y-85725000D01*
D17*
%TO.N,/F1*%
X108478000Y-93960000D02*
X106500000Y-93960000D01*
X121048000Y-89027000D02*
X113411000Y-89027000D01*
X113411000Y-89027000D02*
X108478000Y-93960000D01*
%TO.N,VCC*%
X116840000Y-86868000D02*
X116840000Y-83058000D01*
X145415000Y-93472000D02*
X145415000Y-89281000D01*
X117602000Y-87630000D02*
X116840000Y-86868000D01*
X145415000Y-89281000D02*
X143764000Y-87630000D01*
X143764000Y-87630000D02*
X117602000Y-87630000D01*
%TO.N,/OUT+*%
X154087500Y-88809500D02*
X153987500Y-88709500D01*
X153860500Y-88582500D02*
X145415000Y-80137000D01*
X154087500Y-97325000D02*
X154087500Y-88809500D01*
D18*
X153860500Y-88582500D02*
X153987500Y-88709500D01*
%TO.N,Net-(U2-Pad26)*%
X145796000Y-99441000D02*
X147955000Y-97282000D01*
X125095000Y-99441000D02*
X145796000Y-99441000D01*
X121031000Y-91794000D02*
X121031000Y-95377000D01*
X121298000Y-91527000D02*
X121031000Y-91794000D01*
X121031000Y-95377000D02*
X125095000Y-99441000D01*
X147955000Y-97282000D02*
X147955000Y-93472000D01*
%TD*%
M02*
