%TF.GenerationSoftware,KiCad,Pcbnew,(6.0.6-0)*%
%TF.CreationDate,2022-07-18T23:30:02+08:00*%
%TF.ProjectId,VFD,5646442e-6b69-4636-9164-5f7063625858,rev?*%
%TF.SameCoordinates,Original*%
%TF.FileFunction,Soldermask,Bot*%
%TF.FilePolarity,Negative*%
%FSLAX46Y46*%
G04 Gerber Fmt 4.6, Leading zero omitted, Abs format (unit mm)*
G04 Created by KiCad (PCBNEW (6.0.6-0)) date 2022-07-18 23:30:02*
%MOMM*%
%LPD*%
G01*
G04 APERTURE LIST*
G04 Aperture macros list*
%AMRoundRect*
0 Rectangle with rounded corners*
0 $1 Rounding radius*
0 $2 $3 $4 $5 $6 $7 $8 $9 X,Y pos of 4 corners*
0 Add a 4 corners polygon primitive as box body*
4,1,4,$2,$3,$4,$5,$6,$7,$8,$9,$2,$3,0*
0 Add four circle primitives for the rounded corners*
1,1,$1+$1,$2,$3*
1,1,$1+$1,$4,$5*
1,1,$1+$1,$6,$7*
1,1,$1+$1,$8,$9*
0 Add four rect primitives between the rounded corners*
20,1,$1+$1,$2,$3,$4,$5,0*
20,1,$1+$1,$4,$5,$6,$7,0*
20,1,$1+$1,$6,$7,$8,$9,0*
20,1,$1+$1,$8,$9,$2,$3,0*%
%AMFreePoly0*
4,1,13,0.835355,0.835355,0.850000,0.800000,0.850000,-0.800000,0.835355,-0.835355,0.800000,-0.850000,-0.800000,-0.850000,-0.835355,-0.835355,-0.850000,-0.800000,-0.850000,0.800000,-0.835355,0.835355,-0.800000,0.850000,0.800000,0.850000,0.835355,0.835355,0.835355,0.835355,$1*%
%AMFreePoly1*
4,1,17,0.366726,0.835355,0.835355,0.366726,0.850000,0.331371,0.850000,-0.331371,0.835355,-0.366727,0.366726,-0.835355,0.331371,-0.850000,-0.331371,-0.850000,-0.366727,-0.835355,-0.835355,-0.366726,-0.850000,-0.331371,-0.850000,0.331371,-0.835355,0.366726,-0.366727,0.835355,-0.331371,0.850000,0.331371,0.850000,0.366726,0.835355,0.366726,0.835355,$1*%
%AMFreePoly2*
4,1,17,0.428858,0.985355,0.985356,0.428858,1.000000,0.393503,1.000000,-0.393503,0.985356,-0.428858,0.428858,-0.985355,0.393503,-1.000000,-0.393503,-1.000000,-0.428858,-0.985356,-0.985355,-0.428858,-1.000000,-0.393503,-1.000000,0.393503,-0.985355,0.428858,-0.428858,0.985356,-0.393503,1.000000,0.393503,1.000000,0.428858,0.985355,0.428858,0.985355,$1*%
G04 Aperture macros list end*
%ADD10C,1.600000*%
%ADD11FreePoly0,180.000000*%
%ADD12FreePoly1,180.000000*%
%ADD13FreePoly0,90.000000*%
%ADD14FreePoly1,90.000000*%
%ADD15RoundRect,0.150000X-0.150000X0.750000X-0.150000X-0.750000X0.150000X-0.750000X0.150000X0.750000X0*%
%ADD16FreePoly2,90.000000*%
G04 APERTURE END LIST*
D10*
%TO.C,U3*%
X121048000Y-89027000D03*
X121448000Y-91427000D03*
X122298000Y-93527000D03*
X123548000Y-95277000D03*
X125548000Y-96777000D03*
X127798000Y-97777000D03*
X130048000Y-98027000D03*
X132298000Y-97777000D03*
X134298000Y-96777000D03*
X136298000Y-95277000D03*
X137798000Y-93277000D03*
X138798000Y-91277000D03*
X139048000Y-89027000D03*
X138548000Y-86277000D03*
X137298000Y-83777000D03*
X135048000Y-82027000D03*
X132798000Y-80777000D03*
X130048000Y-80027000D03*
X127298000Y-80527000D03*
X125048000Y-81777000D03*
X123048000Y-83527000D03*
X121548000Y-86027000D03*
%TD*%
D11*
%TO.C,J2*%
X106500000Y-96500000D03*
D12*
X106500000Y-93960000D03*
X106500000Y-91420000D03*
X106500000Y-88880000D03*
X106500000Y-86340000D03*
X106500000Y-83800000D03*
X106500000Y-81260000D03*
X106500000Y-78720000D03*
%TD*%
D13*
%TO.C,J1*%
X130125000Y-75125000D03*
D14*
X127585000Y-75125000D03*
X125045000Y-75125000D03*
X122505000Y-75125000D03*
X119965000Y-75125000D03*
X117425000Y-75125000D03*
X114885000Y-75125000D03*
X112345000Y-75125000D03*
%TD*%
D15*
%TO.C,U2*%
X145415000Y-82200000D03*
X146685000Y-82200000D03*
X147955000Y-82200000D03*
X149225000Y-82200000D03*
X150495000Y-82200000D03*
X151765000Y-82200000D03*
X153035000Y-82200000D03*
X154305000Y-82200000D03*
X155575000Y-82200000D03*
X156845000Y-82200000D03*
X158115000Y-82200000D03*
X159385000Y-82200000D03*
X160655000Y-82200000D03*
X161925000Y-82200000D03*
X161925000Y-91800000D03*
X160655000Y-91800000D03*
X159385000Y-91800000D03*
X158115000Y-91800000D03*
X156845000Y-91800000D03*
X155575000Y-91800000D03*
X154305000Y-91800000D03*
X153035000Y-91800000D03*
X151765000Y-91800000D03*
X150495000Y-91800000D03*
X149225000Y-91800000D03*
X147955000Y-91800000D03*
X146685000Y-91800000D03*
X145415000Y-91800000D03*
%TD*%
D16*
%TO.C,U1*%
X109587500Y-97325000D03*
X109587500Y-76325000D03*
X154087500Y-76325000D03*
X154087500Y-97325000D03*
%TD*%
M02*
