%TF.GenerationSoftware,KiCad,Pcbnew,(6.0.6-0)*%
%TF.CreationDate,2022-07-18T23:29:11+08:00*%
%TF.ProjectId,main,6d61696e-2e6b-4696-9361-645f70636258,rev?*%
%TF.SameCoordinates,Original*%
%TF.FileFunction,Soldermask,Top*%
%TF.FilePolarity,Negative*%
%FSLAX46Y46*%
G04 Gerber Fmt 4.6, Leading zero omitted, Abs format (unit mm)*
G04 Created by KiCad (PCBNEW (6.0.6-0)) date 2022-07-18 23:29:11*
%MOMM*%
%LPD*%
G01*
G04 APERTURE LIST*
G04 Aperture macros list*
%AMRoundRect*
0 Rectangle with rounded corners*
0 $1 Rounding radius*
0 $2 $3 $4 $5 $6 $7 $8 $9 X,Y pos of 4 corners*
0 Add a 4 corners polygon primitive as box body*
4,1,4,$2,$3,$4,$5,$6,$7,$8,$9,$2,$3,0*
0 Add four circle primitives for the rounded corners*
1,1,$1+$1,$2,$3*
1,1,$1+$1,$4,$5*
1,1,$1+$1,$6,$7*
1,1,$1+$1,$8,$9*
0 Add four rect primitives between the rounded corners*
20,1,$1+$1,$2,$3,$4,$5,0*
20,1,$1+$1,$4,$5,$6,$7,0*
20,1,$1+$1,$6,$7,$8,$9,0*
20,1,$1+$1,$8,$9,$2,$3,0*%
%AMFreePoly0*
4,1,22,0.500000,-0.750000,0.000000,-0.750000,0.000000,-0.745033,-0.079941,-0.743568,-0.215256,-0.701293,-0.333266,-0.622738,-0.424486,-0.514219,-0.481581,-0.384460,-0.499164,-0.250000,-0.500000,-0.250000,-0.500000,0.250000,-0.499164,0.250000,-0.499963,0.256109,-0.478152,0.396186,-0.417904,0.524511,-0.324060,0.630769,-0.204165,0.706417,-0.067858,0.745374,0.000000,0.744959,0.000000,0.750000,
0.500000,0.750000,0.500000,-0.750000,0.500000,-0.750000,$1*%
%AMFreePoly1*
4,1,20,0.000000,0.744959,0.073905,0.744508,0.209726,0.703889,0.328688,0.626782,0.421226,0.519385,0.479903,0.390333,0.500000,0.250000,0.500000,-0.250000,0.499851,-0.262216,0.476331,-0.402017,0.414519,-0.529596,0.319384,-0.634700,0.198574,-0.708877,0.061801,-0.746166,0.000000,-0.745033,0.000000,-0.750000,-0.500000,-0.750000,-0.500000,0.750000,0.000000,0.750000,0.000000,0.744959,
0.000000,0.744959,$1*%
G04 Aperture macros list end*
%ADD10R,2.000000X1.500000*%
%ADD11R,2.000000X3.800000*%
%ADD12C,1.000000*%
%ADD13R,1.700000X1.700000*%
%ADD14O,1.700000X1.700000*%
%ADD15RoundRect,0.250000X-0.412500X-0.650000X0.412500X-0.650000X0.412500X0.650000X-0.412500X0.650000X0*%
%ADD16R,2.500000X1.000000*%
%ADD17RoundRect,0.250000X0.337500X0.475000X-0.337500X0.475000X-0.337500X-0.475000X0.337500X-0.475000X0*%
%ADD18RoundRect,0.250000X-0.350000X-0.450000X0.350000X-0.450000X0.350000X0.450000X-0.350000X0.450000X0*%
%ADD19RoundRect,0.250000X0.350000X0.450000X-0.350000X0.450000X-0.350000X-0.450000X0.350000X-0.450000X0*%
%ADD20RoundRect,0.150000X-0.587500X-0.150000X0.587500X-0.150000X0.587500X0.150000X-0.587500X0.150000X0*%
%ADD21RoundRect,0.250000X0.475000X-0.337500X0.475000X0.337500X-0.475000X0.337500X-0.475000X-0.337500X0*%
%ADD22R,1.400000X0.400000*%
%ADD23O,1.900000X1.050000*%
%ADD24R,1.450000X1.150000*%
%ADD25R,1.900000X1.750000*%
%ADD26C,0.600000*%
%ADD27R,1.160000X0.600000*%
%ADD28R,1.160000X0.300000*%
%ADD29O,2.000000X0.900000*%
%ADD30O,1.700000X0.900000*%
%ADD31RoundRect,0.150000X-0.875000X-0.150000X0.875000X-0.150000X0.875000X0.150000X-0.875000X0.150000X0*%
%ADD32RoundRect,0.275000X-1.225000X-0.275000X1.225000X-0.275000X1.225000X0.275000X-1.225000X0.275000X0*%
%ADD33FreePoly0,0.000000*%
%ADD34FreePoly1,0.000000*%
%ADD35RoundRect,0.250001X-0.462499X-0.624999X0.462499X-0.624999X0.462499X0.624999X-0.462499X0.624999X0*%
%ADD36R,1.750000X1.750000*%
%ADD37C,1.750000*%
%ADD38C,2.700000*%
G04 APERTURE END LIST*
D10*
%TO.C,U3*%
X146650000Y-56000000D03*
D11*
X152950000Y-58300000D03*
D10*
X146650000Y-58300000D03*
X146650000Y-60600000D03*
%TD*%
D12*
%TO.C,TP4*%
X155500000Y-74300000D03*
%TD*%
D13*
%TO.C,M1*%
X52650000Y-56550000D03*
D14*
X50110000Y-56550000D03*
X47570000Y-56550000D03*
X45030000Y-56550000D03*
%TD*%
D15*
%TO.C,C4*%
X139037500Y-56200000D03*
X142162500Y-56200000D03*
%TD*%
D16*
%TO.C,U1*%
X113300000Y-60100000D03*
X113300000Y-62100000D03*
X113300000Y-64100000D03*
X113300000Y-66100000D03*
X113300000Y-68100000D03*
X113300000Y-70100000D03*
X113300000Y-72100000D03*
X113300000Y-74100000D03*
X128500000Y-74100000D03*
X128500000Y-72100000D03*
X128500000Y-70100000D03*
X128500000Y-68100000D03*
X128500000Y-66100000D03*
X128500000Y-64100000D03*
X128500000Y-62100000D03*
X128500000Y-60100000D03*
%TD*%
D17*
%TO.C,C6*%
X70200000Y-60800000D03*
X68125000Y-60800000D03*
%TD*%
D18*
%TO.C,R2*%
X133500000Y-69500000D03*
X135500000Y-69500000D03*
%TD*%
D19*
%TO.C,R4*%
X135500000Y-64100000D03*
X133500000Y-64100000D03*
%TD*%
D18*
%TO.C,R5*%
X90300000Y-63200000D03*
X92300000Y-63200000D03*
%TD*%
D19*
%TO.C,R3*%
X135500000Y-66100000D03*
X133500000Y-66100000D03*
%TD*%
D20*
%TO.C,Q1*%
X138212500Y-68850000D03*
X138212500Y-70750000D03*
X140087500Y-69800000D03*
%TD*%
D13*
%TO.C,J5*%
X161300000Y-59100000D03*
D14*
X161300000Y-61640000D03*
X161300000Y-64180000D03*
X161300000Y-66720000D03*
X161300000Y-69260000D03*
X161300000Y-71800000D03*
X161300000Y-74340000D03*
X161300000Y-76880000D03*
%TD*%
D13*
%TO.C,J4*%
X41000000Y-72875000D03*
D14*
X41000000Y-75415000D03*
X41000000Y-77955000D03*
%TD*%
D13*
%TO.C,J3*%
X78000000Y-56600000D03*
D14*
X80540000Y-56600000D03*
X83080000Y-56600000D03*
X85620000Y-56600000D03*
X88160000Y-56600000D03*
X90700000Y-56600000D03*
X93240000Y-56600000D03*
%TD*%
D18*
%TO.C,R1*%
X47850000Y-64600000D03*
X49850000Y-64600000D03*
%TD*%
D13*
%TO.C,M2*%
X68200000Y-56550000D03*
D14*
X65660000Y-56550000D03*
X63120000Y-56550000D03*
X60580000Y-56550000D03*
%TD*%
D21*
%TO.C,C1*%
X116700000Y-79037500D03*
X116700000Y-76962500D03*
%TD*%
D12*
%TO.C,TP5*%
X155500000Y-77000000D03*
%TD*%
D22*
%TO.C,J2*%
X169850000Y-74900000D03*
X169850000Y-74250000D03*
X169850000Y-73600000D03*
X169850000Y-72950000D03*
X169850000Y-72300000D03*
D23*
X172500000Y-77175000D03*
D24*
X170270000Y-75920000D03*
D25*
X172500000Y-74725000D03*
D23*
X172500000Y-70025000D03*
D24*
X170270000Y-71280000D03*
D25*
X172500000Y-72475000D03*
%TD*%
D26*
%TO.C,J1*%
X168175000Y-58810000D03*
X168175000Y-64590000D03*
D27*
X167115000Y-64900000D03*
X167115000Y-64100000D03*
D28*
X167115000Y-62950000D03*
X167115000Y-61950000D03*
X167115000Y-61450000D03*
X167115000Y-60450000D03*
D27*
X167115000Y-59300000D03*
X167115000Y-58500000D03*
X167115000Y-58500000D03*
X167115000Y-59300000D03*
D28*
X167115000Y-59950000D03*
X167115000Y-60950000D03*
X167115000Y-62450000D03*
X167115000Y-63450000D03*
D27*
X167115000Y-64100000D03*
X167115000Y-64900000D03*
D29*
X167695000Y-57380000D03*
X167695000Y-66020000D03*
D30*
X171865000Y-66020000D03*
X171865000Y-57380000D03*
%TD*%
D21*
%TO.C,C2*%
X165800000Y-74137500D03*
X165800000Y-72062500D03*
%TD*%
D31*
%TO.C,U2*%
X53850000Y-63155000D03*
X53850000Y-64425000D03*
X53850000Y-65695000D03*
X53850000Y-66965000D03*
X53850000Y-68235000D03*
X53850000Y-69505000D03*
X53850000Y-70775000D03*
X53850000Y-72045000D03*
X63150000Y-72045000D03*
X63150000Y-70775000D03*
X63150000Y-69505000D03*
X63150000Y-68235000D03*
X63150000Y-66965000D03*
X63150000Y-65695000D03*
X63150000Y-64425000D03*
X63150000Y-63155000D03*
%TD*%
D12*
%TO.C,TP2*%
X47200000Y-61600000D03*
%TD*%
D32*
%TO.C,BZ1*%
X134295000Y-72905000D03*
X139895000Y-72905000D03*
X139895000Y-76405000D03*
%TD*%
D12*
%TO.C,TP3*%
X155500000Y-69300000D03*
%TD*%
D33*
%TO.C,JP2*%
X150550000Y-74300000D03*
D34*
X151850000Y-74300000D03*
%TD*%
D35*
%TO.C,D1*%
X137850000Y-65150000D03*
X140825000Y-65150000D03*
%TD*%
D12*
%TO.C,TP1*%
X49050000Y-68200000D03*
%TD*%
D36*
%TO.C,RV1*%
X76255000Y-72100000D03*
D37*
X76255000Y-75600000D03*
X109255000Y-72100000D03*
D38*
X81355000Y-69650000D03*
X80155000Y-78050000D03*
X104155000Y-69650000D03*
X105355000Y-78050000D03*
%TD*%
D15*
%TO.C,C3*%
X139075000Y-60100000D03*
X142200000Y-60100000D03*
%TD*%
D17*
%TO.C,C5*%
X55937500Y-60800000D03*
X53862500Y-60800000D03*
%TD*%
D33*
%TO.C,JP1*%
X150550000Y-69300000D03*
D34*
X151850000Y-69300000D03*
%TD*%
D33*
%TO.C,JP3*%
X150550000Y-77000000D03*
D34*
X151850000Y-77000000D03*
%TD*%
G36*
X137440143Y-54020002D02*
G01*
X137486636Y-54073658D01*
X137498022Y-54126026D01*
X137497034Y-58842587D01*
X137477018Y-58910704D01*
X137423352Y-58957186D01*
X137371039Y-58968561D01*
X98024651Y-58969994D01*
X97956529Y-58949994D01*
X97910034Y-58896340D01*
X97898646Y-58843994D01*
X97898646Y-54126000D01*
X97918648Y-54057879D01*
X97972304Y-54011386D01*
X98024646Y-54000000D01*
X137372022Y-54000000D01*
X137440143Y-54020002D01*
G37*
M02*
