%TF.GenerationSoftware,KiCad,Pcbnew,(6.0.6-0)*%
%TF.CreationDate,2022-07-18T23:29:11+08:00*%
%TF.ProjectId,main,6d61696e-2e6b-4696-9361-645f70636258,rev?*%
%TF.SameCoordinates,Original*%
%TF.FileFunction,Paste,Top*%
%TF.FilePolarity,Positive*%
%FSLAX46Y46*%
G04 Gerber Fmt 4.6, Leading zero omitted, Abs format (unit mm)*
G04 Created by KiCad (PCBNEW (6.0.6-0)) date 2022-07-18 23:29:11*
%MOMM*%
%LPD*%
G01*
G04 APERTURE LIST*
G04 Aperture macros list*
%AMRoundRect*
0 Rectangle with rounded corners*
0 $1 Rounding radius*
0 $2 $3 $4 $5 $6 $7 $8 $9 X,Y pos of 4 corners*
0 Add a 4 corners polygon primitive as box body*
4,1,4,$2,$3,$4,$5,$6,$7,$8,$9,$2,$3,0*
0 Add four circle primitives for the rounded corners*
1,1,$1+$1,$2,$3*
1,1,$1+$1,$4,$5*
1,1,$1+$1,$6,$7*
1,1,$1+$1,$8,$9*
0 Add four rect primitives between the rounded corners*
20,1,$1+$1,$2,$3,$4,$5,0*
20,1,$1+$1,$4,$5,$6,$7,0*
20,1,$1+$1,$6,$7,$8,$9,0*
20,1,$1+$1,$8,$9,$2,$3,0*%
G04 Aperture macros list end*
%ADD10R,2.000000X1.500000*%
%ADD11R,2.000000X3.800000*%
%ADD12RoundRect,0.250000X-0.412500X-0.650000X0.412500X-0.650000X0.412500X0.650000X-0.412500X0.650000X0*%
%ADD13R,2.500000X1.000000*%
%ADD14RoundRect,0.250000X0.337500X0.475000X-0.337500X0.475000X-0.337500X-0.475000X0.337500X-0.475000X0*%
%ADD15RoundRect,0.250000X-0.350000X-0.450000X0.350000X-0.450000X0.350000X0.450000X-0.350000X0.450000X0*%
%ADD16RoundRect,0.250000X0.350000X0.450000X-0.350000X0.450000X-0.350000X-0.450000X0.350000X-0.450000X0*%
%ADD17RoundRect,0.150000X-0.587500X-0.150000X0.587500X-0.150000X0.587500X0.150000X-0.587500X0.150000X0*%
%ADD18RoundRect,0.250000X0.475000X-0.337500X0.475000X0.337500X-0.475000X0.337500X-0.475000X-0.337500X0*%
%ADD19R,1.400000X0.400000*%
%ADD20R,1.450000X1.150000*%
%ADD21R,1.900000X1.750000*%
%ADD22R,1.160000X0.600000*%
%ADD23R,1.160000X0.300000*%
%ADD24RoundRect,0.150000X-0.875000X-0.150000X0.875000X-0.150000X0.875000X0.150000X-0.875000X0.150000X0*%
%ADD25RoundRect,0.275000X-1.225000X-0.275000X1.225000X-0.275000X1.225000X0.275000X-1.225000X0.275000X0*%
%ADD26RoundRect,0.250001X-0.462499X-0.624999X0.462499X-0.624999X0.462499X0.624999X-0.462499X0.624999X0*%
G04 APERTURE END LIST*
D10*
%TO.C,U3*%
X146650000Y-56000000D03*
D11*
X152950000Y-58300000D03*
D10*
X146650000Y-58300000D03*
X146650000Y-60600000D03*
%TD*%
D12*
%TO.C,C4*%
X139037500Y-56200000D03*
X142162500Y-56200000D03*
%TD*%
D13*
%TO.C,U1*%
X113300000Y-60100000D03*
X113300000Y-62100000D03*
X113300000Y-64100000D03*
X113300000Y-66100000D03*
X113300000Y-68100000D03*
X113300000Y-70100000D03*
X113300000Y-72100000D03*
X113300000Y-74100000D03*
X128500000Y-74100000D03*
X128500000Y-72100000D03*
X128500000Y-70100000D03*
X128500000Y-68100000D03*
X128500000Y-66100000D03*
X128500000Y-64100000D03*
X128500000Y-62100000D03*
X128500000Y-60100000D03*
%TD*%
D14*
%TO.C,C6*%
X70200000Y-60800000D03*
X68125000Y-60800000D03*
%TD*%
D15*
%TO.C,R2*%
X133500000Y-69500000D03*
X135500000Y-69500000D03*
%TD*%
D16*
%TO.C,R4*%
X135500000Y-64100000D03*
X133500000Y-64100000D03*
%TD*%
D15*
%TO.C,R5*%
X90300000Y-63200000D03*
X92300000Y-63200000D03*
%TD*%
D16*
%TO.C,R3*%
X135500000Y-66100000D03*
X133500000Y-66100000D03*
%TD*%
D17*
%TO.C,Q1*%
X138212500Y-68850000D03*
X138212500Y-70750000D03*
X140087500Y-69800000D03*
%TD*%
D15*
%TO.C,R1*%
X47850000Y-64600000D03*
X49850000Y-64600000D03*
%TD*%
D18*
%TO.C,C1*%
X116700000Y-79037500D03*
X116700000Y-76962500D03*
%TD*%
D19*
%TO.C,J2*%
X169850000Y-74900000D03*
X169850000Y-74250000D03*
X169850000Y-73600000D03*
X169850000Y-72950000D03*
X169850000Y-72300000D03*
D20*
X170270000Y-75920000D03*
D21*
X172500000Y-74725000D03*
D20*
X170270000Y-71280000D03*
D21*
X172500000Y-72475000D03*
%TD*%
D22*
%TO.C,J1*%
X167115000Y-64900000D03*
X167115000Y-64100000D03*
D23*
X167115000Y-62950000D03*
X167115000Y-61950000D03*
X167115000Y-61450000D03*
X167115000Y-60450000D03*
D22*
X167115000Y-59300000D03*
X167115000Y-58500000D03*
X167115000Y-58500000D03*
X167115000Y-59300000D03*
D23*
X167115000Y-59950000D03*
X167115000Y-60950000D03*
X167115000Y-62450000D03*
X167115000Y-63450000D03*
D22*
X167115000Y-64100000D03*
X167115000Y-64900000D03*
%TD*%
D18*
%TO.C,C2*%
X165800000Y-74137500D03*
X165800000Y-72062500D03*
%TD*%
D24*
%TO.C,U2*%
X53850000Y-63155000D03*
X53850000Y-64425000D03*
X53850000Y-65695000D03*
X53850000Y-66965000D03*
X53850000Y-68235000D03*
X53850000Y-69505000D03*
X53850000Y-70775000D03*
X53850000Y-72045000D03*
X63150000Y-72045000D03*
X63150000Y-70775000D03*
X63150000Y-69505000D03*
X63150000Y-68235000D03*
X63150000Y-66965000D03*
X63150000Y-65695000D03*
X63150000Y-64425000D03*
X63150000Y-63155000D03*
%TD*%
D25*
%TO.C,BZ1*%
X134295000Y-72905000D03*
X139895000Y-72905000D03*
X139895000Y-76405000D03*
%TD*%
D26*
%TO.C,D1*%
X137850000Y-65150000D03*
X140825000Y-65150000D03*
%TD*%
D12*
%TO.C,C3*%
X139075000Y-60100000D03*
X142200000Y-60100000D03*
%TD*%
D14*
%TO.C,C5*%
X55937500Y-60800000D03*
X53862500Y-60800000D03*
%TD*%
M02*
