%TF.GenerationSoftware,KiCad,Pcbnew,(6.0.6-0)*%
%TF.CreationDate,2022-07-18T23:29:11+08:00*%
%TF.ProjectId,main,6d61696e-2e6b-4696-9361-645f70636258,rev?*%
%TF.SameCoordinates,Original*%
%TF.FileFunction,Legend,Top*%
%TF.FilePolarity,Positive*%
%FSLAX46Y46*%
G04 Gerber Fmt 4.6, Leading zero omitted, Abs format (unit mm)*
G04 Created by KiCad (PCBNEW (6.0.6-0)) date 2022-07-18 23:29:11*
%MOMM*%
%LPD*%
G01*
G04 APERTURE LIST*
%ADD10C,0.150000*%
%ADD11C,0.300000*%
%ADD12C,0.120000*%
G04 APERTURE END LIST*
D10*
X77195809Y-61133333D02*
X78795809Y-60800000D01*
X77195809Y-60466666D01*
X78643428Y-59561904D02*
X78719619Y-59609523D01*
X78795809Y-59752380D01*
X78795809Y-59847619D01*
X78719619Y-59990476D01*
X78567238Y-60085714D01*
X78414857Y-60133333D01*
X78110095Y-60180952D01*
X77881523Y-60180952D01*
X77576761Y-60133333D01*
X77424380Y-60085714D01*
X77272000Y-59990476D01*
X77195809Y-59847619D01*
X77195809Y-59752380D01*
X77272000Y-59609523D01*
X77348190Y-59561904D01*
X78643428Y-58561904D02*
X78719619Y-58609523D01*
X78795809Y-58752380D01*
X78795809Y-58847619D01*
X78719619Y-58990476D01*
X78567238Y-59085714D01*
X78414857Y-59133333D01*
X78110095Y-59180952D01*
X77881523Y-59180952D01*
X77576761Y-59133333D01*
X77424380Y-59085714D01*
X77272000Y-58990476D01*
X77195809Y-58847619D01*
X77195809Y-58752380D01*
X77272000Y-58609523D01*
X77348190Y-58561904D01*
X79848000Y-60561904D02*
X79771809Y-60657142D01*
X79771809Y-60800000D01*
X79848000Y-60942857D01*
X80000380Y-61038095D01*
X80152761Y-61085714D01*
X80457523Y-61133333D01*
X80686095Y-61133333D01*
X80990857Y-61085714D01*
X81143238Y-61038095D01*
X81295619Y-60942857D01*
X81371809Y-60800000D01*
X81371809Y-60704761D01*
X81295619Y-60561904D01*
X81219428Y-60514285D01*
X80686095Y-60514285D01*
X80686095Y-60704761D01*
X81371809Y-60085714D02*
X79771809Y-60085714D01*
X81371809Y-59514285D01*
X79771809Y-59514285D01*
X81371809Y-59038095D02*
X79771809Y-59038095D01*
X79771809Y-58800000D01*
X79848000Y-58657142D01*
X80000380Y-58561904D01*
X80152761Y-58514285D01*
X80457523Y-58466666D01*
X80686095Y-58466666D01*
X80990857Y-58514285D01*
X81143238Y-58561904D01*
X81295619Y-58657142D01*
X81371809Y-58800000D01*
X81371809Y-59038095D01*
X82347809Y-59847619D02*
X82347809Y-59752380D01*
X82424000Y-59657142D01*
X82500190Y-59609523D01*
X82652571Y-59561904D01*
X82957333Y-59514285D01*
X83338285Y-59514285D01*
X83643047Y-59561904D01*
X83795428Y-59609523D01*
X83871619Y-59657142D01*
X83947809Y-59752380D01*
X83947809Y-59847619D01*
X83871619Y-59942857D01*
X83795428Y-59990476D01*
X83643047Y-60038095D01*
X83338285Y-60085714D01*
X82957333Y-60085714D01*
X82652571Y-60038095D01*
X82500190Y-59990476D01*
X82424000Y-59942857D01*
X82347809Y-59847619D01*
X85685714Y-60538095D02*
X85685714Y-60204761D01*
X86523809Y-60061904D02*
X86523809Y-60538095D01*
X84923809Y-60538095D01*
X84923809Y-60061904D01*
X86523809Y-59633333D02*
X84923809Y-59633333D01*
X86523809Y-59061904D01*
X84923809Y-59061904D01*
X89099809Y-59966666D02*
X88337904Y-60300000D01*
X89099809Y-60538095D02*
X87499809Y-60538095D01*
X87499809Y-60157142D01*
X87576000Y-60061904D01*
X87652190Y-60014285D01*
X87804571Y-59966666D01*
X88033142Y-59966666D01*
X88185523Y-60014285D01*
X88261714Y-60061904D01*
X88337904Y-60157142D01*
X88337904Y-60538095D01*
X87499809Y-59633333D02*
X89099809Y-58966666D01*
X87499809Y-58966666D02*
X89099809Y-59633333D01*
X90075809Y-60561904D02*
X90075809Y-59990476D01*
X91675809Y-60276190D02*
X90075809Y-60276190D01*
X90075809Y-59752380D02*
X91675809Y-59085714D01*
X90075809Y-59085714D02*
X91675809Y-59752380D01*
X93185142Y-61371428D02*
X94251809Y-61371428D01*
X93337523Y-61371428D02*
X93261333Y-61323809D01*
X93185142Y-61228571D01*
X93185142Y-61085714D01*
X93261333Y-60990476D01*
X93413714Y-60942857D01*
X94251809Y-60942857D01*
X94251809Y-59895238D02*
X93489904Y-60228571D01*
X94251809Y-60466666D02*
X92651809Y-60466666D01*
X92651809Y-60085714D01*
X92728000Y-59990476D01*
X92804190Y-59942857D01*
X92956571Y-59895238D01*
X93185142Y-59895238D01*
X93337523Y-59942857D01*
X93413714Y-59990476D01*
X93489904Y-60085714D01*
X93489904Y-60466666D01*
X94175619Y-59514285D02*
X94251809Y-59371428D01*
X94251809Y-59133333D01*
X94175619Y-59038095D01*
X94099428Y-58990476D01*
X93947047Y-58942857D01*
X93794666Y-58942857D01*
X93642285Y-58990476D01*
X93566095Y-59038095D01*
X93489904Y-59133333D01*
X93413714Y-59323809D01*
X93337523Y-59419047D01*
X93261333Y-59466666D01*
X93108952Y-59514285D01*
X92956571Y-59514285D01*
X92804190Y-59466666D01*
X92728000Y-59419047D01*
X92651809Y-59323809D01*
X92651809Y-59085714D01*
X92728000Y-58942857D01*
X92651809Y-58657142D02*
X92651809Y-58085714D01*
X94251809Y-58371428D02*
X92651809Y-58371428D01*
D11*
X76042857Y-65478571D02*
X76542857Y-66978571D01*
X77042857Y-65478571D01*
X78042857Y-66192857D02*
X77542857Y-66192857D01*
X77542857Y-66978571D02*
X77542857Y-65478571D01*
X78257142Y-65478571D01*
X78828571Y-66978571D02*
X78828571Y-65478571D01*
X79185714Y-65478571D01*
X79400000Y-65550000D01*
X79542857Y-65692857D01*
X79614285Y-65835714D01*
X79685714Y-66121428D01*
X79685714Y-66335714D01*
X79614285Y-66621428D01*
X79542857Y-66764285D01*
X79400000Y-66907142D01*
X79185714Y-66978571D01*
X78828571Y-66978571D01*
X80328571Y-66407142D02*
X81471428Y-66407142D01*
X82971428Y-66978571D02*
X82114285Y-66978571D01*
X82542857Y-66978571D02*
X82542857Y-65478571D01*
X82400000Y-65692857D01*
X82257142Y-65835714D01*
X82114285Y-65907142D01*
X84257142Y-65978571D02*
X84257142Y-66978571D01*
X83900000Y-65407142D02*
X83542857Y-66478571D01*
X84471428Y-66478571D01*
X85328571Y-65478571D02*
X85471428Y-65478571D01*
X85614285Y-65550000D01*
X85685714Y-65621428D01*
X85757142Y-65764285D01*
X85828571Y-66050000D01*
X85828571Y-66407142D01*
X85757142Y-66692857D01*
X85685714Y-66835714D01*
X85614285Y-66907142D01*
X85471428Y-66978571D01*
X85328571Y-66978571D01*
X85185714Y-66907142D01*
X85114285Y-66835714D01*
X85042857Y-66692857D01*
X84971428Y-66407142D01*
X84971428Y-66050000D01*
X85042857Y-65764285D01*
X85114285Y-65621428D01*
X85185714Y-65550000D01*
X85328571Y-65478571D01*
X86400000Y-65621428D02*
X86471428Y-65550000D01*
X86614285Y-65478571D01*
X86971428Y-65478571D01*
X87114285Y-65550000D01*
X87185714Y-65621428D01*
X87257142Y-65764285D01*
X87257142Y-65907142D01*
X87185714Y-66121428D01*
X86328571Y-66978571D01*
X87257142Y-66978571D01*
X87757142Y-65478571D02*
X88757142Y-65478571D01*
X88114285Y-66978571D01*
X89328571Y-66407142D02*
X90471428Y-66407142D01*
X91828571Y-65978571D02*
X91828571Y-66978571D01*
X91185714Y-65978571D02*
X91185714Y-66764285D01*
X91257142Y-66907142D01*
X91400000Y-66978571D01*
X91614285Y-66978571D01*
X91757142Y-66907142D01*
X91828571Y-66835714D01*
X92542857Y-65978571D02*
X92542857Y-66978571D01*
X92542857Y-66121428D02*
X92614285Y-66050000D01*
X92757142Y-65978571D01*
X92971428Y-65978571D01*
X93114285Y-66050000D01*
X93185714Y-66192857D01*
X93185714Y-66978571D01*
X94114285Y-66978571D02*
X93971428Y-66907142D01*
X93900000Y-66835714D01*
X93828571Y-66692857D01*
X93828571Y-66264285D01*
X93900000Y-66121428D01*
X93971428Y-66050000D01*
X94114285Y-65978571D01*
X94328571Y-65978571D01*
X94471428Y-66050000D01*
X94542857Y-66121428D01*
X94614285Y-66264285D01*
X94614285Y-66692857D01*
X94542857Y-66835714D01*
X94471428Y-66907142D01*
X94328571Y-66978571D01*
X94114285Y-66978571D01*
D10*
X163409523Y-62052380D02*
X162838095Y-62052380D01*
X163123809Y-62052380D02*
X163123809Y-61052380D01*
X163028571Y-61195238D01*
X162933333Y-61290476D01*
X162838095Y-61338095D01*
X164266666Y-61385714D02*
X164266666Y-62052380D01*
X164028571Y-61004761D02*
X163790476Y-61719047D01*
X164409523Y-61719047D01*
X163409523Y-67152380D02*
X162838095Y-67152380D01*
X163123809Y-67152380D02*
X163123809Y-66152380D01*
X163028571Y-66295238D01*
X162933333Y-66390476D01*
X162838095Y-66438095D01*
X163742857Y-66152380D02*
X164361904Y-66152380D01*
X164028571Y-66533333D01*
X164171428Y-66533333D01*
X164266666Y-66580952D01*
X164314285Y-66628571D01*
X164361904Y-66723809D01*
X164361904Y-66961904D01*
X164314285Y-67057142D01*
X164266666Y-67104761D01*
X164171428Y-67152380D01*
X163885714Y-67152380D01*
X163790476Y-67104761D01*
X163742857Y-67057142D01*
X42566666Y-71847809D02*
X42900000Y-73447809D01*
X43233333Y-71847809D01*
X44138095Y-73295428D02*
X44090476Y-73371619D01*
X43947619Y-73447809D01*
X43852380Y-73447809D01*
X43709523Y-73371619D01*
X43614285Y-73219238D01*
X43566666Y-73066857D01*
X43519047Y-72762095D01*
X43519047Y-72533523D01*
X43566666Y-72228761D01*
X43614285Y-72076380D01*
X43709523Y-71924000D01*
X43852380Y-71847809D01*
X43947619Y-71847809D01*
X44090476Y-71924000D01*
X44138095Y-72000190D01*
X45138095Y-73295428D02*
X45090476Y-73371619D01*
X44947619Y-73447809D01*
X44852380Y-73447809D01*
X44709523Y-73371619D01*
X44614285Y-73219238D01*
X44566666Y-73066857D01*
X44519047Y-72762095D01*
X44519047Y-72533523D01*
X44566666Y-72228761D01*
X44614285Y-72076380D01*
X44709523Y-71924000D01*
X44852380Y-71847809D01*
X44947619Y-71847809D01*
X45090476Y-71924000D01*
X45138095Y-72000190D01*
X43709523Y-76023809D02*
X43138095Y-76023809D01*
X43423809Y-76023809D02*
X43423809Y-74423809D01*
X43328571Y-74652380D01*
X43233333Y-74804761D01*
X43138095Y-74880952D01*
X44614285Y-74423809D02*
X44138095Y-74423809D01*
X44090476Y-75185714D01*
X44138095Y-75109523D01*
X44233333Y-75033333D01*
X44471428Y-75033333D01*
X44566666Y-75109523D01*
X44614285Y-75185714D01*
X44661904Y-75338095D01*
X44661904Y-75719047D01*
X44614285Y-75871428D01*
X44566666Y-75947619D01*
X44471428Y-76023809D01*
X44233333Y-76023809D01*
X44138095Y-75947619D01*
X44090476Y-75871428D01*
X43138095Y-77076000D02*
X43042857Y-76999809D01*
X42900000Y-76999809D01*
X42757142Y-77076000D01*
X42661904Y-77228380D01*
X42614285Y-77380761D01*
X42566666Y-77685523D01*
X42566666Y-77914095D01*
X42614285Y-78218857D01*
X42661904Y-78371238D01*
X42757142Y-78523619D01*
X42900000Y-78599809D01*
X42995238Y-78599809D01*
X43138095Y-78523619D01*
X43185714Y-78447428D01*
X43185714Y-77914095D01*
X42995238Y-77914095D01*
X43614285Y-78599809D02*
X43614285Y-76999809D01*
X44185714Y-78599809D01*
X44185714Y-76999809D01*
X44661904Y-78599809D02*
X44661904Y-76999809D01*
X44900000Y-76999809D01*
X45042857Y-77076000D01*
X45138095Y-77228380D01*
X45185714Y-77380761D01*
X45233333Y-77685523D01*
X45233333Y-77914095D01*
X45185714Y-78218857D01*
X45138095Y-78371238D01*
X45042857Y-78523619D01*
X44900000Y-78599809D01*
X44661904Y-78599809D01*
X163338095Y-58600000D02*
X163242857Y-58552380D01*
X163100000Y-58552380D01*
X162957142Y-58600000D01*
X162861904Y-58695238D01*
X162814285Y-58790476D01*
X162766666Y-58980952D01*
X162766666Y-59123809D01*
X162814285Y-59314285D01*
X162861904Y-59409523D01*
X162957142Y-59504761D01*
X163100000Y-59552380D01*
X163195238Y-59552380D01*
X163338095Y-59504761D01*
X163385714Y-59457142D01*
X163385714Y-59123809D01*
X163195238Y-59123809D01*
X163814285Y-59552380D02*
X163814285Y-58552380D01*
X164385714Y-59552380D01*
X164385714Y-58552380D01*
X164861904Y-59552380D02*
X164861904Y-58552380D01*
X165100000Y-58552380D01*
X165242857Y-58600000D01*
X165338095Y-58695238D01*
X165385714Y-58790476D01*
X165433333Y-58980952D01*
X165433333Y-59123809D01*
X165385714Y-59314285D01*
X165338095Y-59409523D01*
X165242857Y-59504761D01*
X165100000Y-59552380D01*
X164861904Y-59552380D01*
X163409523Y-64752380D02*
X162838095Y-64752380D01*
X163123809Y-64752380D02*
X163123809Y-63752380D01*
X163028571Y-63895238D01*
X162933333Y-63990476D01*
X162838095Y-64038095D01*
X163790476Y-63847619D02*
X163838095Y-63800000D01*
X163933333Y-63752380D01*
X164171428Y-63752380D01*
X164266666Y-63800000D01*
X164314285Y-63847619D01*
X164361904Y-63942857D01*
X164361904Y-64038095D01*
X164314285Y-64180952D01*
X163742857Y-64752380D01*
X164361904Y-64752380D01*
X44750000Y-58866666D02*
X45250000Y-58866666D01*
X44650000Y-59152380D02*
X45000000Y-58152380D01*
X45350000Y-59152380D01*
X47800000Y-59152380D02*
X47300000Y-59152380D01*
X47300000Y-58152380D01*
X50300000Y-58200000D02*
X50200000Y-58152380D01*
X50050000Y-58152380D01*
X49900000Y-58200000D01*
X49800000Y-58295238D01*
X49750000Y-58390476D01*
X49700000Y-58580952D01*
X49700000Y-58723809D01*
X49750000Y-58914285D01*
X49800000Y-59009523D01*
X49900000Y-59104761D01*
X50050000Y-59152380D01*
X50150000Y-59152380D01*
X50300000Y-59104761D01*
X50350000Y-59057142D01*
X50350000Y-58723809D01*
X50150000Y-58723809D01*
X52250000Y-58152380D02*
X52600000Y-59152380D01*
X52950000Y-58152380D01*
X60350000Y-58866666D02*
X60850000Y-58866666D01*
X60250000Y-59152380D02*
X60600000Y-58152380D01*
X60950000Y-59152380D01*
X63400000Y-59152380D02*
X62900000Y-59152380D01*
X62900000Y-58152380D01*
X65900000Y-58200000D02*
X65800000Y-58152380D01*
X65650000Y-58152380D01*
X65500000Y-58200000D01*
X65400000Y-58295238D01*
X65350000Y-58390476D01*
X65300000Y-58580952D01*
X65300000Y-58723809D01*
X65350000Y-58914285D01*
X65400000Y-59009523D01*
X65500000Y-59104761D01*
X65650000Y-59152380D01*
X65750000Y-59152380D01*
X65900000Y-59104761D01*
X65950000Y-59057142D01*
X65950000Y-58723809D01*
X65750000Y-58723809D01*
X67850000Y-58152380D02*
X68200000Y-59152380D01*
X68550000Y-58152380D01*
%TO.C,U3*%
X145585714Y-62966666D02*
X146061904Y-62966666D01*
X145490476Y-63252380D02*
X145823809Y-62252380D01*
X146157142Y-63252380D01*
X146490476Y-63252380D02*
X146490476Y-62252380D01*
X146871428Y-62252380D01*
X146966666Y-62300000D01*
X147014285Y-62347619D01*
X147061904Y-62442857D01*
X147061904Y-62585714D01*
X147014285Y-62680952D01*
X146966666Y-62728571D01*
X146871428Y-62776190D01*
X146490476Y-62776190D01*
X148014285Y-63252380D02*
X147442857Y-63252380D01*
X147728571Y-63252380D02*
X147728571Y-62252380D01*
X147633333Y-62395238D01*
X147538095Y-62490476D01*
X147442857Y-62538095D01*
X148966666Y-63252380D02*
X148395238Y-63252380D01*
X148680952Y-63252380D02*
X148680952Y-62252380D01*
X148585714Y-62395238D01*
X148490476Y-62490476D01*
X148395238Y-62538095D01*
X149919047Y-63252380D02*
X149347619Y-63252380D01*
X149633333Y-63252380D02*
X149633333Y-62252380D01*
X149538095Y-62395238D01*
X149442857Y-62490476D01*
X149347619Y-62538095D01*
X150252380Y-62252380D02*
X150919047Y-62252380D01*
X150490476Y-63252380D01*
X151300000Y-62871428D02*
X152061904Y-62871428D01*
X152442857Y-62252380D02*
X153061904Y-62252380D01*
X152728571Y-62633333D01*
X152871428Y-62633333D01*
X152966666Y-62680952D01*
X153014285Y-62728571D01*
X153061904Y-62823809D01*
X153061904Y-63061904D01*
X153014285Y-63157142D01*
X152966666Y-63204761D01*
X152871428Y-63252380D01*
X152585714Y-63252380D01*
X152490476Y-63204761D01*
X152442857Y-63157142D01*
X153395238Y-62252380D02*
X154014285Y-62252380D01*
X153680952Y-62633333D01*
X153823809Y-62633333D01*
X153919047Y-62680952D01*
X153966666Y-62728571D01*
X154014285Y-62823809D01*
X154014285Y-63061904D01*
X153966666Y-63157142D01*
X153919047Y-63204761D01*
X153823809Y-63252380D01*
X153538095Y-63252380D01*
X153442857Y-63204761D01*
X153395238Y-63157142D01*
%TO.C,TP4*%
X157266666Y-74228571D02*
X156933333Y-74228571D01*
X156933333Y-74752380D02*
X156933333Y-73752380D01*
X157409523Y-73752380D01*
X158314285Y-74752380D02*
X157742857Y-74752380D01*
X158028571Y-74752380D02*
X158028571Y-73752380D01*
X157933333Y-73895238D01*
X157838095Y-73990476D01*
X157742857Y-74038095D01*
%TO.C,M1*%
X46957142Y-60304761D02*
X47100000Y-60352380D01*
X47338095Y-60352380D01*
X47433333Y-60304761D01*
X47480952Y-60257142D01*
X47528571Y-60161904D01*
X47528571Y-60066666D01*
X47480952Y-59971428D01*
X47433333Y-59923809D01*
X47338095Y-59876190D01*
X47147619Y-59828571D01*
X47052380Y-59780952D01*
X47004761Y-59733333D01*
X46957142Y-59638095D01*
X46957142Y-59542857D01*
X47004761Y-59447619D01*
X47052380Y-59400000D01*
X47147619Y-59352380D01*
X47385714Y-59352380D01*
X47528571Y-59400000D01*
X47957142Y-60352380D02*
X47957142Y-59352380D01*
X47957142Y-59828571D02*
X48528571Y-59828571D01*
X48528571Y-60352380D02*
X48528571Y-59352380D01*
X48861904Y-59352380D02*
X49433333Y-59352380D01*
X49147619Y-60352380D02*
X49147619Y-59352380D01*
X49671428Y-59352380D02*
X50290476Y-59352380D01*
X49957142Y-59733333D01*
X50100000Y-59733333D01*
X50195238Y-59780952D01*
X50242857Y-59828571D01*
X50290476Y-59923809D01*
X50290476Y-60161904D01*
X50242857Y-60257142D01*
X50195238Y-60304761D01*
X50100000Y-60352380D01*
X49814285Y-60352380D01*
X49719047Y-60304761D01*
X49671428Y-60257142D01*
X50623809Y-59352380D02*
X51290476Y-60352380D01*
X51290476Y-59352380D02*
X50623809Y-60352380D01*
%TO.C,C4*%
X139480952Y-58502380D02*
X138909523Y-58502380D01*
X139195238Y-58502380D02*
X139195238Y-57502380D01*
X139100000Y-57645238D01*
X139004761Y-57740476D01*
X138909523Y-57788095D01*
X140100000Y-57502380D02*
X140195238Y-57502380D01*
X140290476Y-57550000D01*
X140338095Y-57597619D01*
X140385714Y-57692857D01*
X140433333Y-57883333D01*
X140433333Y-58121428D01*
X140385714Y-58311904D01*
X140338095Y-58407142D01*
X140290476Y-58454761D01*
X140195238Y-58502380D01*
X140100000Y-58502380D01*
X140004761Y-58454761D01*
X139957142Y-58407142D01*
X139909523Y-58311904D01*
X139861904Y-58121428D01*
X139861904Y-57883333D01*
X139909523Y-57692857D01*
X139957142Y-57597619D01*
X140004761Y-57550000D01*
X140100000Y-57502380D01*
X141052380Y-57502380D02*
X141147619Y-57502380D01*
X141242857Y-57550000D01*
X141290476Y-57597619D01*
X141338095Y-57692857D01*
X141385714Y-57883333D01*
X141385714Y-58121428D01*
X141338095Y-58311904D01*
X141290476Y-58407142D01*
X141242857Y-58454761D01*
X141147619Y-58502380D01*
X141052380Y-58502380D01*
X140957142Y-58454761D01*
X140909523Y-58407142D01*
X140861904Y-58311904D01*
X140814285Y-58121428D01*
X140814285Y-57883333D01*
X140861904Y-57692857D01*
X140909523Y-57597619D01*
X140957142Y-57550000D01*
X141052380Y-57502380D01*
X142242857Y-57835714D02*
X142242857Y-58502380D01*
X141814285Y-57835714D02*
X141814285Y-58359523D01*
X141861904Y-58454761D01*
X141957142Y-58502380D01*
X142100000Y-58502380D01*
X142195238Y-58454761D01*
X142242857Y-58407142D01*
%TO.C,U1*%
X123538095Y-76778571D02*
X123871428Y-76778571D01*
X124014285Y-77302380D02*
X123538095Y-77302380D01*
X123538095Y-76302380D01*
X124014285Y-76302380D01*
X124395238Y-77254761D02*
X124538095Y-77302380D01*
X124776190Y-77302380D01*
X124871428Y-77254761D01*
X124919047Y-77207142D01*
X124966666Y-77111904D01*
X124966666Y-77016666D01*
X124919047Y-76921428D01*
X124871428Y-76873809D01*
X124776190Y-76826190D01*
X124585714Y-76778571D01*
X124490476Y-76730952D01*
X124442857Y-76683333D01*
X124395238Y-76588095D01*
X124395238Y-76492857D01*
X124442857Y-76397619D01*
X124490476Y-76350000D01*
X124585714Y-76302380D01*
X124823809Y-76302380D01*
X124966666Y-76350000D01*
X125395238Y-77302380D02*
X125395238Y-76302380D01*
X125776190Y-76302380D01*
X125871428Y-76350000D01*
X125919047Y-76397619D01*
X125966666Y-76492857D01*
X125966666Y-76635714D01*
X125919047Y-76730952D01*
X125871428Y-76778571D01*
X125776190Y-76826190D01*
X125395238Y-76826190D01*
X126395238Y-76921428D02*
X127157142Y-76921428D01*
X127823809Y-76302380D02*
X127919047Y-76302380D01*
X128014285Y-76350000D01*
X128061904Y-76397619D01*
X128109523Y-76492857D01*
X128157142Y-76683333D01*
X128157142Y-76921428D01*
X128109523Y-77111904D01*
X128061904Y-77207142D01*
X128014285Y-77254761D01*
X127919047Y-77302380D01*
X127823809Y-77302380D01*
X127728571Y-77254761D01*
X127680952Y-77207142D01*
X127633333Y-77111904D01*
X127585714Y-76921428D01*
X127585714Y-76683333D01*
X127633333Y-76492857D01*
X127680952Y-76397619D01*
X127728571Y-76350000D01*
X127823809Y-76302380D01*
X128490476Y-76302380D02*
X129157142Y-76302380D01*
X128728571Y-77302380D01*
%TO.C,C6*%
X71780952Y-61252380D02*
X71209523Y-61252380D01*
X71495238Y-61252380D02*
X71495238Y-60252380D01*
X71400000Y-60395238D01*
X71304761Y-60490476D01*
X71209523Y-60538095D01*
X72400000Y-60252380D02*
X72495238Y-60252380D01*
X72590476Y-60300000D01*
X72638095Y-60347619D01*
X72685714Y-60442857D01*
X72733333Y-60633333D01*
X72733333Y-60871428D01*
X72685714Y-61061904D01*
X72638095Y-61157142D01*
X72590476Y-61204761D01*
X72495238Y-61252380D01*
X72400000Y-61252380D01*
X72304761Y-61204761D01*
X72257142Y-61157142D01*
X72209523Y-61061904D01*
X72161904Y-60871428D01*
X72161904Y-60633333D01*
X72209523Y-60442857D01*
X72257142Y-60347619D01*
X72304761Y-60300000D01*
X72400000Y-60252380D01*
X73352380Y-60252380D02*
X73447619Y-60252380D01*
X73542857Y-60300000D01*
X73590476Y-60347619D01*
X73638095Y-60442857D01*
X73685714Y-60633333D01*
X73685714Y-60871428D01*
X73638095Y-61061904D01*
X73590476Y-61157142D01*
X73542857Y-61204761D01*
X73447619Y-61252380D01*
X73352380Y-61252380D01*
X73257142Y-61204761D01*
X73209523Y-61157142D01*
X73161904Y-61061904D01*
X73114285Y-60871428D01*
X73114285Y-60633333D01*
X73161904Y-60442857D01*
X73209523Y-60347619D01*
X73257142Y-60300000D01*
X73352380Y-60252380D01*
X74114285Y-60585714D02*
X74114285Y-61252380D01*
X74114285Y-60680952D02*
X74161904Y-60633333D01*
X74257142Y-60585714D01*
X74400000Y-60585714D01*
X74495238Y-60633333D01*
X74542857Y-60728571D01*
X74542857Y-61252380D01*
%TO.C,R2*%
X133214285Y-70452380D02*
X133833333Y-70452380D01*
X133500000Y-70833333D01*
X133642857Y-70833333D01*
X133738095Y-70880952D01*
X133785714Y-70928571D01*
X133833333Y-71023809D01*
X133833333Y-71261904D01*
X133785714Y-71357142D01*
X133738095Y-71404761D01*
X133642857Y-71452380D01*
X133357142Y-71452380D01*
X133261904Y-71404761D01*
X133214285Y-71357142D01*
X134166666Y-70452380D02*
X134785714Y-70452380D01*
X134452380Y-70833333D01*
X134595238Y-70833333D01*
X134690476Y-70880952D01*
X134738095Y-70928571D01*
X134785714Y-71023809D01*
X134785714Y-71261904D01*
X134738095Y-71357142D01*
X134690476Y-71404761D01*
X134595238Y-71452380D01*
X134309523Y-71452380D01*
X134214285Y-71404761D01*
X134166666Y-71357142D01*
X135404761Y-70452380D02*
X135500000Y-70452380D01*
X135595238Y-70500000D01*
X135642857Y-70547619D01*
X135690476Y-70642857D01*
X135738095Y-70833333D01*
X135738095Y-71071428D01*
X135690476Y-71261904D01*
X135642857Y-71357142D01*
X135595238Y-71404761D01*
X135500000Y-71452380D01*
X135404761Y-71452380D01*
X135309523Y-71404761D01*
X135261904Y-71357142D01*
X135214285Y-71261904D01*
X135166666Y-71071428D01*
X135166666Y-70833333D01*
X135214285Y-70642857D01*
X135261904Y-70547619D01*
X135309523Y-70500000D01*
X135404761Y-70452380D01*
%TO.C,R4*%
X133809523Y-62235714D02*
X133809523Y-62902380D01*
X133571428Y-61854761D02*
X133333333Y-62569047D01*
X133952380Y-62569047D01*
X134333333Y-62902380D02*
X134333333Y-61902380D01*
X134428571Y-62521428D02*
X134714285Y-62902380D01*
X134714285Y-62235714D02*
X134333333Y-62616666D01*
X135047619Y-61902380D02*
X135714285Y-61902380D01*
X135285714Y-62902380D01*
%TO.C,R5*%
X87304761Y-63652380D02*
X86733333Y-63652380D01*
X87019047Y-63652380D02*
X87019047Y-62652380D01*
X86923809Y-62795238D01*
X86828571Y-62890476D01*
X86733333Y-62938095D01*
X87923809Y-62652380D02*
X88019047Y-62652380D01*
X88114285Y-62700000D01*
X88161904Y-62747619D01*
X88209523Y-62842857D01*
X88257142Y-63033333D01*
X88257142Y-63271428D01*
X88209523Y-63461904D01*
X88161904Y-63557142D01*
X88114285Y-63604761D01*
X88019047Y-63652380D01*
X87923809Y-63652380D01*
X87828571Y-63604761D01*
X87780952Y-63557142D01*
X87733333Y-63461904D01*
X87685714Y-63271428D01*
X87685714Y-63033333D01*
X87733333Y-62842857D01*
X87780952Y-62747619D01*
X87828571Y-62700000D01*
X87923809Y-62652380D01*
X88685714Y-63652380D02*
X88685714Y-62652380D01*
X88780952Y-63271428D02*
X89066666Y-63652380D01*
X89066666Y-62985714D02*
X88685714Y-63366666D01*
%TO.C,R3*%
X133809523Y-67585714D02*
X133809523Y-68252380D01*
X133571428Y-67204761D02*
X133333333Y-67919047D01*
X133952380Y-67919047D01*
X134333333Y-68252380D02*
X134333333Y-67252380D01*
X134428571Y-67871428D02*
X134714285Y-68252380D01*
X134714285Y-67585714D02*
X134333333Y-67966666D01*
X135047619Y-67252380D02*
X135714285Y-67252380D01*
X135285714Y-68252380D01*
%TO.C,Q1*%
X141209523Y-71304761D02*
X141352380Y-71352380D01*
X141590476Y-71352380D01*
X141685714Y-71304761D01*
X141733333Y-71257142D01*
X141780952Y-71161904D01*
X141780952Y-71066666D01*
X141733333Y-70971428D01*
X141685714Y-70923809D01*
X141590476Y-70876190D01*
X141400000Y-70828571D01*
X141304761Y-70780952D01*
X141257142Y-70733333D01*
X141209523Y-70638095D01*
X141209523Y-70542857D01*
X141257142Y-70447619D01*
X141304761Y-70400000D01*
X141400000Y-70352380D01*
X141638095Y-70352380D01*
X141780952Y-70400000D01*
X142352380Y-70780952D02*
X142257142Y-70733333D01*
X142209523Y-70685714D01*
X142161904Y-70590476D01*
X142161904Y-70542857D01*
X142209523Y-70447619D01*
X142257142Y-70400000D01*
X142352380Y-70352380D01*
X142542857Y-70352380D01*
X142638095Y-70400000D01*
X142685714Y-70447619D01*
X142733333Y-70542857D01*
X142733333Y-70590476D01*
X142685714Y-70685714D01*
X142638095Y-70733333D01*
X142542857Y-70780952D01*
X142352380Y-70780952D01*
X142257142Y-70828571D01*
X142209523Y-70876190D01*
X142161904Y-70971428D01*
X142161904Y-71161904D01*
X142209523Y-71257142D01*
X142257142Y-71304761D01*
X142352380Y-71352380D01*
X142542857Y-71352380D01*
X142638095Y-71304761D01*
X142685714Y-71257142D01*
X142733333Y-71161904D01*
X142733333Y-70971428D01*
X142685714Y-70876190D01*
X142638095Y-70828571D01*
X142542857Y-70780952D01*
X143352380Y-70352380D02*
X143447619Y-70352380D01*
X143542857Y-70400000D01*
X143590476Y-70447619D01*
X143638095Y-70542857D01*
X143685714Y-70733333D01*
X143685714Y-70971428D01*
X143638095Y-71161904D01*
X143590476Y-71257142D01*
X143542857Y-71304761D01*
X143447619Y-71352380D01*
X143352380Y-71352380D01*
X143257142Y-71304761D01*
X143209523Y-71257142D01*
X143161904Y-71161904D01*
X143114285Y-70971428D01*
X143114285Y-70733333D01*
X143161904Y-70542857D01*
X143209523Y-70447619D01*
X143257142Y-70400000D01*
X143352380Y-70352380D01*
X144590476Y-70352380D02*
X144114285Y-70352380D01*
X144066666Y-70828571D01*
X144114285Y-70780952D01*
X144209523Y-70733333D01*
X144447619Y-70733333D01*
X144542857Y-70780952D01*
X144590476Y-70828571D01*
X144638095Y-70923809D01*
X144638095Y-71161904D01*
X144590476Y-71257142D01*
X144542857Y-71304761D01*
X144447619Y-71352380D01*
X144209523Y-71352380D01*
X144114285Y-71304761D01*
X144066666Y-71257142D01*
X145257142Y-70352380D02*
X145352380Y-70352380D01*
X145447619Y-70400000D01*
X145495238Y-70447619D01*
X145542857Y-70542857D01*
X145590476Y-70733333D01*
X145590476Y-70971428D01*
X145542857Y-71161904D01*
X145495238Y-71257142D01*
X145447619Y-71304761D01*
X145352380Y-71352380D01*
X145257142Y-71352380D01*
X145161904Y-71304761D01*
X145114285Y-71257142D01*
X145066666Y-71161904D01*
X145019047Y-70971428D01*
X145019047Y-70733333D01*
X145066666Y-70542857D01*
X145114285Y-70447619D01*
X145161904Y-70400000D01*
X145257142Y-70352380D01*
%TO.C,J5*%
X160038095Y-78662380D02*
X160371428Y-79662380D01*
X160704761Y-78662380D01*
X161371428Y-79138571D02*
X161038095Y-79138571D01*
X161038095Y-79662380D02*
X161038095Y-78662380D01*
X161514285Y-78662380D01*
X161895238Y-79662380D02*
X161895238Y-78662380D01*
X162133333Y-78662380D01*
X162276190Y-78710000D01*
X162371428Y-78805238D01*
X162419047Y-78900476D01*
X162466666Y-79090952D01*
X162466666Y-79233809D01*
X162419047Y-79424285D01*
X162371428Y-79519523D01*
X162276190Y-79614761D01*
X162133333Y-79662380D01*
X161895238Y-79662380D01*
%TO.C,J4*%
X48845238Y-79252380D02*
X48750000Y-79204761D01*
X48702380Y-79109523D01*
X48702380Y-78252380D01*
X49226190Y-79252380D02*
X49226190Y-78585714D01*
X49226190Y-78252380D02*
X49178571Y-78300000D01*
X49226190Y-78347619D01*
X49273809Y-78300000D01*
X49226190Y-78252380D01*
X49226190Y-78347619D01*
X50130952Y-78585714D02*
X50130952Y-79395238D01*
X50083333Y-79490476D01*
X50035714Y-79538095D01*
X49940476Y-79585714D01*
X49797619Y-79585714D01*
X49702380Y-79538095D01*
X50130952Y-79204761D02*
X50035714Y-79252380D01*
X49845238Y-79252380D01*
X49750000Y-79204761D01*
X49702380Y-79157142D01*
X49654761Y-79061904D01*
X49654761Y-78776190D01*
X49702380Y-78680952D01*
X49750000Y-78633333D01*
X49845238Y-78585714D01*
X50035714Y-78585714D01*
X50130952Y-78633333D01*
X50607142Y-79252380D02*
X50607142Y-78252380D01*
X51035714Y-79252380D02*
X51035714Y-78728571D01*
X50988095Y-78633333D01*
X50892857Y-78585714D01*
X50750000Y-78585714D01*
X50654761Y-78633333D01*
X50607142Y-78680952D01*
X51369047Y-78585714D02*
X51750000Y-78585714D01*
X51511904Y-78252380D02*
X51511904Y-79109523D01*
X51559523Y-79204761D01*
X51654761Y-79252380D01*
X51750000Y-79252380D01*
X52845238Y-79252380D02*
X52845238Y-78252380D01*
X52845238Y-78633333D02*
X52940476Y-78585714D01*
X53130952Y-78585714D01*
X53226190Y-78633333D01*
X53273809Y-78680952D01*
X53321428Y-78776190D01*
X53321428Y-79061904D01*
X53273809Y-79157142D01*
X53226190Y-79204761D01*
X53130952Y-79252380D01*
X52940476Y-79252380D01*
X52845238Y-79204761D01*
X54178571Y-79252380D02*
X54178571Y-78728571D01*
X54130952Y-78633333D01*
X54035714Y-78585714D01*
X53845238Y-78585714D01*
X53750000Y-78633333D01*
X54178571Y-79204761D02*
X54083333Y-79252380D01*
X53845238Y-79252380D01*
X53750000Y-79204761D01*
X53702380Y-79109523D01*
X53702380Y-79014285D01*
X53750000Y-78919047D01*
X53845238Y-78871428D01*
X54083333Y-78871428D01*
X54178571Y-78823809D01*
X54654761Y-79252380D02*
X54654761Y-78585714D01*
X54654761Y-78776190D02*
X54702380Y-78680952D01*
X54750000Y-78633333D01*
X54845238Y-78585714D01*
X54940476Y-78585714D01*
%TO.C,R1*%
X44809523Y-64485714D02*
X44809523Y-65152380D01*
X44571428Y-64104761D02*
X44333333Y-64819047D01*
X44952380Y-64819047D01*
X45333333Y-65152380D02*
X45333333Y-64152380D01*
X45428571Y-64771428D02*
X45714285Y-65152380D01*
X45714285Y-64485714D02*
X45333333Y-64866666D01*
X46047619Y-64152380D02*
X46714285Y-64152380D01*
X46285714Y-65152380D01*
%TO.C,M2*%
X61871428Y-59828571D02*
X62014285Y-59876190D01*
X62061904Y-59923809D01*
X62109523Y-60019047D01*
X62109523Y-60161904D01*
X62061904Y-60257142D01*
X62014285Y-60304761D01*
X61919047Y-60352380D01*
X61538095Y-60352380D01*
X61538095Y-59352380D01*
X61871428Y-59352380D01*
X61966666Y-59400000D01*
X62014285Y-59447619D01*
X62061904Y-59542857D01*
X62061904Y-59638095D01*
X62014285Y-59733333D01*
X61966666Y-59780952D01*
X61871428Y-59828571D01*
X61538095Y-59828571D01*
X62538095Y-60352380D02*
X62538095Y-59352380D01*
X62871428Y-60066666D01*
X63204761Y-59352380D01*
X63204761Y-60352380D01*
X63680952Y-60352380D02*
X63680952Y-59352380D01*
X64061904Y-59352380D01*
X64157142Y-59400000D01*
X64204761Y-59447619D01*
X64252380Y-59542857D01*
X64252380Y-59685714D01*
X64204761Y-59780952D01*
X64157142Y-59828571D01*
X64061904Y-59876190D01*
X63680952Y-59876190D01*
X64585714Y-59352380D02*
X65252380Y-60352380D01*
X65252380Y-59352380D02*
X64585714Y-60352380D01*
X65776190Y-59780952D02*
X65680952Y-59733333D01*
X65633333Y-59685714D01*
X65585714Y-59590476D01*
X65585714Y-59542857D01*
X65633333Y-59447619D01*
X65680952Y-59400000D01*
X65776190Y-59352380D01*
X65966666Y-59352380D01*
X66061904Y-59400000D01*
X66109523Y-59447619D01*
X66157142Y-59542857D01*
X66157142Y-59590476D01*
X66109523Y-59685714D01*
X66061904Y-59733333D01*
X65966666Y-59780952D01*
X65776190Y-59780952D01*
X65680952Y-59828571D01*
X65633333Y-59876190D01*
X65585714Y-59971428D01*
X65585714Y-60161904D01*
X65633333Y-60257142D01*
X65680952Y-60304761D01*
X65776190Y-60352380D01*
X65966666Y-60352380D01*
X66061904Y-60304761D01*
X66109523Y-60257142D01*
X66157142Y-60161904D01*
X66157142Y-59971428D01*
X66109523Y-59876190D01*
X66061904Y-59828571D01*
X65966666Y-59780952D01*
X66776190Y-59352380D02*
X66871428Y-59352380D01*
X66966666Y-59400000D01*
X67014285Y-59447619D01*
X67061904Y-59542857D01*
X67109523Y-59733333D01*
X67109523Y-59971428D01*
X67061904Y-60161904D01*
X67014285Y-60257142D01*
X66966666Y-60304761D01*
X66871428Y-60352380D01*
X66776190Y-60352380D01*
X66680952Y-60304761D01*
X66633333Y-60257142D01*
X66585714Y-60161904D01*
X66538095Y-59971428D01*
X66538095Y-59733333D01*
X66585714Y-59542857D01*
X66633333Y-59447619D01*
X66680952Y-59400000D01*
X66776190Y-59352380D01*
%TO.C,C1*%
X118832380Y-79119047D02*
X118832380Y-79690476D01*
X118832380Y-79404761D02*
X117832380Y-79404761D01*
X117975238Y-79500000D01*
X118070476Y-79595238D01*
X118118095Y-79690476D01*
X117832380Y-78500000D02*
X117832380Y-78404761D01*
X117880000Y-78309523D01*
X117927619Y-78261904D01*
X118022857Y-78214285D01*
X118213333Y-78166666D01*
X118451428Y-78166666D01*
X118641904Y-78214285D01*
X118737142Y-78261904D01*
X118784761Y-78309523D01*
X118832380Y-78404761D01*
X118832380Y-78500000D01*
X118784761Y-78595238D01*
X118737142Y-78642857D01*
X118641904Y-78690476D01*
X118451428Y-78738095D01*
X118213333Y-78738095D01*
X118022857Y-78690476D01*
X117927619Y-78642857D01*
X117880000Y-78595238D01*
X117832380Y-78500000D01*
X117832380Y-77547619D02*
X117832380Y-77452380D01*
X117880000Y-77357142D01*
X117927619Y-77309523D01*
X118022857Y-77261904D01*
X118213333Y-77214285D01*
X118451428Y-77214285D01*
X118641904Y-77261904D01*
X118737142Y-77309523D01*
X118784761Y-77357142D01*
X118832380Y-77452380D01*
X118832380Y-77547619D01*
X118784761Y-77642857D01*
X118737142Y-77690476D01*
X118641904Y-77738095D01*
X118451428Y-77785714D01*
X118213333Y-77785714D01*
X118022857Y-77738095D01*
X117927619Y-77690476D01*
X117880000Y-77642857D01*
X117832380Y-77547619D01*
X118165714Y-76785714D02*
X118832380Y-76785714D01*
X118260952Y-76785714D02*
X118213333Y-76738095D01*
X118165714Y-76642857D01*
X118165714Y-76500000D01*
X118213333Y-76404761D01*
X118308571Y-76357142D01*
X118832380Y-76357142D01*
%TO.C,TP5*%
X157166666Y-76928571D02*
X156833333Y-76928571D01*
X156833333Y-77452380D02*
X156833333Y-76452380D01*
X157309523Y-76452380D01*
X157642857Y-76547619D02*
X157690476Y-76500000D01*
X157785714Y-76452380D01*
X158023809Y-76452380D01*
X158119047Y-76500000D01*
X158166666Y-76547619D01*
X158214285Y-76642857D01*
X158214285Y-76738095D01*
X158166666Y-76880952D01*
X157595238Y-77452380D01*
X158214285Y-77452380D01*
%TO.C,C2*%
X167932380Y-74219047D02*
X167932380Y-74790476D01*
X167932380Y-74504761D02*
X166932380Y-74504761D01*
X167075238Y-74600000D01*
X167170476Y-74695238D01*
X167218095Y-74790476D01*
X166932380Y-73600000D02*
X166932380Y-73504761D01*
X166980000Y-73409523D01*
X167027619Y-73361904D01*
X167122857Y-73314285D01*
X167313333Y-73266666D01*
X167551428Y-73266666D01*
X167741904Y-73314285D01*
X167837142Y-73361904D01*
X167884761Y-73409523D01*
X167932380Y-73504761D01*
X167932380Y-73600000D01*
X167884761Y-73695238D01*
X167837142Y-73742857D01*
X167741904Y-73790476D01*
X167551428Y-73838095D01*
X167313333Y-73838095D01*
X167122857Y-73790476D01*
X167027619Y-73742857D01*
X166980000Y-73695238D01*
X166932380Y-73600000D01*
X166932380Y-72647619D02*
X166932380Y-72552380D01*
X166980000Y-72457142D01*
X167027619Y-72409523D01*
X167122857Y-72361904D01*
X167313333Y-72314285D01*
X167551428Y-72314285D01*
X167741904Y-72361904D01*
X167837142Y-72409523D01*
X167884761Y-72457142D01*
X167932380Y-72552380D01*
X167932380Y-72647619D01*
X167884761Y-72742857D01*
X167837142Y-72790476D01*
X167741904Y-72838095D01*
X167551428Y-72885714D01*
X167313333Y-72885714D01*
X167122857Y-72838095D01*
X167027619Y-72790476D01*
X166980000Y-72742857D01*
X166932380Y-72647619D01*
X167265714Y-71885714D02*
X167932380Y-71885714D01*
X167360952Y-71885714D02*
X167313333Y-71838095D01*
X167265714Y-71742857D01*
X167265714Y-71600000D01*
X167313333Y-71504761D01*
X167408571Y-71457142D01*
X167932380Y-71457142D01*
%TO.C,U2*%
X55285714Y-74152380D02*
X55285714Y-73152380D01*
X55523809Y-73152380D01*
X55666666Y-73200000D01*
X55761904Y-73295238D01*
X55809523Y-73390476D01*
X55857142Y-73580952D01*
X55857142Y-73723809D01*
X55809523Y-73914285D01*
X55761904Y-74009523D01*
X55666666Y-74104761D01*
X55523809Y-74152380D01*
X55285714Y-74152380D01*
X56238095Y-74104761D02*
X56380952Y-74152380D01*
X56619047Y-74152380D01*
X56714285Y-74104761D01*
X56761904Y-74057142D01*
X56809523Y-73961904D01*
X56809523Y-73866666D01*
X56761904Y-73771428D01*
X56714285Y-73723809D01*
X56619047Y-73676190D01*
X56428571Y-73628571D01*
X56333333Y-73580952D01*
X56285714Y-73533333D01*
X56238095Y-73438095D01*
X56238095Y-73342857D01*
X56285714Y-73247619D01*
X56333333Y-73200000D01*
X56428571Y-73152380D01*
X56666666Y-73152380D01*
X56809523Y-73200000D01*
X57142857Y-73152380D02*
X57761904Y-73152380D01*
X57428571Y-73533333D01*
X57571428Y-73533333D01*
X57666666Y-73580952D01*
X57714285Y-73628571D01*
X57761904Y-73723809D01*
X57761904Y-73961904D01*
X57714285Y-74057142D01*
X57666666Y-74104761D01*
X57571428Y-74152380D01*
X57285714Y-74152380D01*
X57190476Y-74104761D01*
X57142857Y-74057142D01*
X58142857Y-73247619D02*
X58190476Y-73200000D01*
X58285714Y-73152380D01*
X58523809Y-73152380D01*
X58619047Y-73200000D01*
X58666666Y-73247619D01*
X58714285Y-73342857D01*
X58714285Y-73438095D01*
X58666666Y-73580952D01*
X58095238Y-74152380D01*
X58714285Y-74152380D01*
X59047619Y-73152380D02*
X59666666Y-73152380D01*
X59333333Y-73533333D01*
X59476190Y-73533333D01*
X59571428Y-73580952D01*
X59619047Y-73628571D01*
X59666666Y-73723809D01*
X59666666Y-73961904D01*
X59619047Y-74057142D01*
X59571428Y-74104761D01*
X59476190Y-74152380D01*
X59190476Y-74152380D01*
X59095238Y-74104761D01*
X59047619Y-74057142D01*
X60619047Y-74152380D02*
X60047619Y-74152380D01*
X60333333Y-74152380D02*
X60333333Y-73152380D01*
X60238095Y-73295238D01*
X60142857Y-73390476D01*
X60047619Y-73438095D01*
X61047619Y-74152380D02*
X61047619Y-73152380D01*
X61380952Y-73866666D01*
X61714285Y-73152380D01*
X61714285Y-74152380D01*
%TO.C,TP2*%
X41061904Y-61052380D02*
X41680952Y-61052380D01*
X41347619Y-61433333D01*
X41490476Y-61433333D01*
X41585714Y-61480952D01*
X41633333Y-61528571D01*
X41680952Y-61623809D01*
X41680952Y-61861904D01*
X41633333Y-61957142D01*
X41585714Y-62004761D01*
X41490476Y-62052380D01*
X41204761Y-62052380D01*
X41109523Y-62004761D01*
X41061904Y-61957142D01*
X42061904Y-61147619D02*
X42109523Y-61100000D01*
X42204761Y-61052380D01*
X42442857Y-61052380D01*
X42538095Y-61100000D01*
X42585714Y-61147619D01*
X42633333Y-61242857D01*
X42633333Y-61338095D01*
X42585714Y-61480952D01*
X42014285Y-62052380D01*
X42633333Y-62052380D01*
X43061904Y-62052380D02*
X43061904Y-61052380D01*
X43633333Y-62052380D02*
X43204761Y-61480952D01*
X43633333Y-61052380D02*
X43061904Y-61623809D01*
X44061904Y-62052380D02*
X44061904Y-61052380D01*
X44061904Y-61528571D02*
X44633333Y-61528571D01*
X44633333Y-62052380D02*
X44633333Y-61052380D01*
X45014285Y-61385714D02*
X45538095Y-61385714D01*
X45014285Y-62052380D01*
X45538095Y-62052380D01*
%TO.C,BZ1*%
X133004761Y-78428571D02*
X133147619Y-78476190D01*
X133195238Y-78523809D01*
X133242857Y-78619047D01*
X133242857Y-78761904D01*
X133195238Y-78857142D01*
X133147619Y-78904761D01*
X133052380Y-78952380D01*
X132671428Y-78952380D01*
X132671428Y-77952380D01*
X133004761Y-77952380D01*
X133100000Y-78000000D01*
X133147619Y-78047619D01*
X133195238Y-78142857D01*
X133195238Y-78238095D01*
X133147619Y-78333333D01*
X133100000Y-78380952D01*
X133004761Y-78428571D01*
X132671428Y-78428571D01*
X133623809Y-78904761D02*
X133766666Y-78952380D01*
X134004761Y-78952380D01*
X134100000Y-78904761D01*
X134147619Y-78857142D01*
X134195238Y-78761904D01*
X134195238Y-78666666D01*
X134147619Y-78571428D01*
X134100000Y-78523809D01*
X134004761Y-78476190D01*
X133814285Y-78428571D01*
X133719047Y-78380952D01*
X133671428Y-78333333D01*
X133623809Y-78238095D01*
X133623809Y-78142857D01*
X133671428Y-78047619D01*
X133719047Y-78000000D01*
X133814285Y-77952380D01*
X134052380Y-77952380D01*
X134195238Y-78000000D01*
X134480952Y-77952380D02*
X135052380Y-77952380D01*
X134766666Y-78952380D02*
X134766666Y-77952380D01*
X135385714Y-78571428D02*
X136147619Y-78571428D01*
X137100000Y-77952380D02*
X136623809Y-77952380D01*
X136576190Y-78428571D01*
X136623809Y-78380952D01*
X136719047Y-78333333D01*
X136957142Y-78333333D01*
X137052380Y-78380952D01*
X137100000Y-78428571D01*
X137147619Y-78523809D01*
X137147619Y-78761904D01*
X137100000Y-78857142D01*
X137052380Y-78904761D01*
X136957142Y-78952380D01*
X136719047Y-78952380D01*
X136623809Y-78904761D01*
X136576190Y-78857142D01*
X138052380Y-77952380D02*
X137576190Y-77952380D01*
X137528571Y-78428571D01*
X137576190Y-78380952D01*
X137671428Y-78333333D01*
X137909523Y-78333333D01*
X138004761Y-78380952D01*
X138052380Y-78428571D01*
X138100000Y-78523809D01*
X138100000Y-78761904D01*
X138052380Y-78857142D01*
X138004761Y-78904761D01*
X137909523Y-78952380D01*
X137671428Y-78952380D01*
X137576190Y-78904761D01*
X137528571Y-78857142D01*
X138480952Y-78047619D02*
X138528571Y-78000000D01*
X138623809Y-77952380D01*
X138861904Y-77952380D01*
X138957142Y-78000000D01*
X139004761Y-78047619D01*
X139052380Y-78142857D01*
X139052380Y-78238095D01*
X139004761Y-78380952D01*
X138433333Y-78952380D01*
X139052380Y-78952380D01*
X139385714Y-77952380D02*
X140004761Y-77952380D01*
X139671428Y-78333333D01*
X139814285Y-78333333D01*
X139909523Y-78380952D01*
X139957142Y-78428571D01*
X140004761Y-78523809D01*
X140004761Y-78761904D01*
X139957142Y-78857142D01*
X139909523Y-78904761D01*
X139814285Y-78952380D01*
X139528571Y-78952380D01*
X139433333Y-78904761D01*
X139385714Y-78857142D01*
X140385714Y-78904761D02*
X140528571Y-78952380D01*
X140766666Y-78952380D01*
X140861904Y-78904761D01*
X140909523Y-78857142D01*
X140957142Y-78761904D01*
X140957142Y-78666666D01*
X140909523Y-78571428D01*
X140861904Y-78523809D01*
X140766666Y-78476190D01*
X140576190Y-78428571D01*
X140480952Y-78380952D01*
X140433333Y-78333333D01*
X140385714Y-78238095D01*
X140385714Y-78142857D01*
X140433333Y-78047619D01*
X140480952Y-78000000D01*
X140576190Y-77952380D01*
X140814285Y-77952380D01*
X140957142Y-78000000D01*
X141338095Y-78666666D02*
X141814285Y-78666666D01*
X141242857Y-78952380D02*
X141576190Y-77952380D01*
X141909523Y-78952380D01*
%TO.C,TP3*%
X153814285Y-71028571D02*
X153957142Y-71076190D01*
X154004761Y-71123809D01*
X154052380Y-71219047D01*
X154052380Y-71361904D01*
X154004761Y-71457142D01*
X153957142Y-71504761D01*
X153861904Y-71552380D01*
X153480952Y-71552380D01*
X153480952Y-70552380D01*
X153814285Y-70552380D01*
X153909523Y-70600000D01*
X153957142Y-70647619D01*
X154004761Y-70742857D01*
X154004761Y-70838095D01*
X153957142Y-70933333D01*
X153909523Y-70980952D01*
X153814285Y-71028571D01*
X153480952Y-71028571D01*
X154957142Y-71552380D02*
X154480952Y-71552380D01*
X154480952Y-70552380D01*
X155242857Y-71266666D02*
X155719047Y-71266666D01*
X155147619Y-71552380D02*
X155480952Y-70552380D01*
X155814285Y-71552380D01*
X156147619Y-71552380D02*
X156147619Y-70552380D01*
X156719047Y-71552380D01*
X156719047Y-70552380D01*
X157195238Y-71552380D02*
X157195238Y-70552380D01*
X157766666Y-71552380D02*
X157338095Y-70980952D01*
X157766666Y-70552380D02*
X157195238Y-71123809D01*
%TO.C,JP2*%
X148466666Y-74328571D02*
X148133333Y-74328571D01*
X148133333Y-74852380D02*
X148133333Y-73852380D01*
X148609523Y-73852380D01*
X149514285Y-74852380D02*
X148942857Y-74852380D01*
X149228571Y-74852380D02*
X149228571Y-73852380D01*
X149133333Y-73995238D01*
X149038095Y-74090476D01*
X148942857Y-74138095D01*
%TO.C,D1*%
X136957142Y-63752380D02*
X136385714Y-63752380D01*
X136671428Y-63752380D02*
X136671428Y-62752380D01*
X136576190Y-62895238D01*
X136480952Y-62990476D01*
X136385714Y-63038095D01*
X137385714Y-63752380D02*
X137385714Y-62752380D01*
X137957142Y-63752380D01*
X137957142Y-62752380D01*
X138861904Y-63085714D02*
X138861904Y-63752380D01*
X138623809Y-62704761D02*
X138385714Y-63419047D01*
X139004761Y-63419047D01*
X139909523Y-63752380D02*
X139338095Y-63752380D01*
X139623809Y-63752380D02*
X139623809Y-62752380D01*
X139528571Y-62895238D01*
X139433333Y-62990476D01*
X139338095Y-63038095D01*
X140766666Y-63085714D02*
X140766666Y-63752380D01*
X140528571Y-62704761D02*
X140290476Y-63419047D01*
X140909523Y-63419047D01*
X141433333Y-63180952D02*
X141338095Y-63133333D01*
X141290476Y-63085714D01*
X141242857Y-62990476D01*
X141242857Y-62942857D01*
X141290476Y-62847619D01*
X141338095Y-62800000D01*
X141433333Y-62752380D01*
X141623809Y-62752380D01*
X141719047Y-62800000D01*
X141766666Y-62847619D01*
X141814285Y-62942857D01*
X141814285Y-62990476D01*
X141766666Y-63085714D01*
X141719047Y-63133333D01*
X141623809Y-63180952D01*
X141433333Y-63180952D01*
X141338095Y-63228571D01*
X141290476Y-63276190D01*
X141242857Y-63371428D01*
X141242857Y-63561904D01*
X141290476Y-63657142D01*
X141338095Y-63704761D01*
X141433333Y-63752380D01*
X141623809Y-63752380D01*
X141719047Y-63704761D01*
X141766666Y-63657142D01*
X141814285Y-63561904D01*
X141814285Y-63371428D01*
X141766666Y-63276190D01*
X141719047Y-63228571D01*
X141623809Y-63180952D01*
%TO.C,TP1*%
X44428571Y-67985714D02*
X44428571Y-68652380D01*
X44428571Y-68080952D02*
X44476190Y-68033333D01*
X44571428Y-67985714D01*
X44714285Y-67985714D01*
X44809523Y-68033333D01*
X44857142Y-68128571D01*
X44857142Y-68652380D01*
X45904761Y-68652380D02*
X45571428Y-68176190D01*
X45333333Y-68652380D02*
X45333333Y-67652380D01*
X45714285Y-67652380D01*
X45809523Y-67700000D01*
X45857142Y-67747619D01*
X45904761Y-67842857D01*
X45904761Y-67985714D01*
X45857142Y-68080952D01*
X45809523Y-68128571D01*
X45714285Y-68176190D01*
X45333333Y-68176190D01*
X46285714Y-68604761D02*
X46428571Y-68652380D01*
X46666666Y-68652380D01*
X46761904Y-68604761D01*
X46809523Y-68557142D01*
X46857142Y-68461904D01*
X46857142Y-68366666D01*
X46809523Y-68271428D01*
X46761904Y-68223809D01*
X46666666Y-68176190D01*
X46476190Y-68128571D01*
X46380952Y-68080952D01*
X46333333Y-68033333D01*
X46285714Y-67938095D01*
X46285714Y-67842857D01*
X46333333Y-67747619D01*
X46380952Y-67700000D01*
X46476190Y-67652380D01*
X46714285Y-67652380D01*
X46857142Y-67700000D01*
X47142857Y-67652380D02*
X47714285Y-67652380D01*
X47428571Y-68652380D02*
X47428571Y-67652380D01*
%TO.C,RV1*%
X92159761Y-80052380D02*
X91588333Y-80052380D01*
X91874047Y-80052380D02*
X91874047Y-79052380D01*
X91778809Y-79195238D01*
X91683571Y-79290476D01*
X91588333Y-79338095D01*
X92778809Y-79052380D02*
X92874047Y-79052380D01*
X92969285Y-79100000D01*
X93016904Y-79147619D01*
X93064523Y-79242857D01*
X93112142Y-79433333D01*
X93112142Y-79671428D01*
X93064523Y-79861904D01*
X93016904Y-79957142D01*
X92969285Y-80004761D01*
X92874047Y-80052380D01*
X92778809Y-80052380D01*
X92683571Y-80004761D01*
X92635952Y-79957142D01*
X92588333Y-79861904D01*
X92540714Y-79671428D01*
X92540714Y-79433333D01*
X92588333Y-79242857D01*
X92635952Y-79147619D01*
X92683571Y-79100000D01*
X92778809Y-79052380D01*
X93540714Y-80052380D02*
X93540714Y-79052380D01*
X93635952Y-79671428D02*
X93921666Y-80052380D01*
X93921666Y-79385714D02*
X93540714Y-79766666D01*
%TO.C,C3*%
X139994642Y-62402380D02*
X139423214Y-62402380D01*
X139708928Y-62402380D02*
X139708928Y-61402380D01*
X139613690Y-61545238D01*
X139518452Y-61640476D01*
X139423214Y-61688095D01*
X140613690Y-61402380D02*
X140708928Y-61402380D01*
X140804166Y-61450000D01*
X140851785Y-61497619D01*
X140899404Y-61592857D01*
X140947023Y-61783333D01*
X140947023Y-62021428D01*
X140899404Y-62211904D01*
X140851785Y-62307142D01*
X140804166Y-62354761D01*
X140708928Y-62402380D01*
X140613690Y-62402380D01*
X140518452Y-62354761D01*
X140470833Y-62307142D01*
X140423214Y-62211904D01*
X140375595Y-62021428D01*
X140375595Y-61783333D01*
X140423214Y-61592857D01*
X140470833Y-61497619D01*
X140518452Y-61450000D01*
X140613690Y-61402380D01*
X141804166Y-61735714D02*
X141804166Y-62402380D01*
X141375595Y-61735714D02*
X141375595Y-62259523D01*
X141423214Y-62354761D01*
X141518452Y-62402380D01*
X141661309Y-62402380D01*
X141756547Y-62354761D01*
X141804166Y-62307142D01*
%TO.C,C5*%
X57518452Y-60952380D02*
X56947023Y-60952380D01*
X57232738Y-60952380D02*
X57232738Y-59952380D01*
X57137500Y-60095238D01*
X57042261Y-60190476D01*
X56947023Y-60238095D01*
X58137500Y-59952380D02*
X58232738Y-59952380D01*
X58327976Y-60000000D01*
X58375595Y-60047619D01*
X58423214Y-60142857D01*
X58470833Y-60333333D01*
X58470833Y-60571428D01*
X58423214Y-60761904D01*
X58375595Y-60857142D01*
X58327976Y-60904761D01*
X58232738Y-60952380D01*
X58137500Y-60952380D01*
X58042261Y-60904761D01*
X57994642Y-60857142D01*
X57947023Y-60761904D01*
X57899404Y-60571428D01*
X57899404Y-60333333D01*
X57947023Y-60142857D01*
X57994642Y-60047619D01*
X58042261Y-60000000D01*
X58137500Y-59952380D01*
X59089880Y-59952380D02*
X59185119Y-59952380D01*
X59280357Y-60000000D01*
X59327976Y-60047619D01*
X59375595Y-60142857D01*
X59423214Y-60333333D01*
X59423214Y-60571428D01*
X59375595Y-60761904D01*
X59327976Y-60857142D01*
X59280357Y-60904761D01*
X59185119Y-60952380D01*
X59089880Y-60952380D01*
X58994642Y-60904761D01*
X58947023Y-60857142D01*
X58899404Y-60761904D01*
X58851785Y-60571428D01*
X58851785Y-60333333D01*
X58899404Y-60142857D01*
X58947023Y-60047619D01*
X58994642Y-60000000D01*
X59089880Y-59952380D01*
X59851785Y-60285714D02*
X59851785Y-60952380D01*
X59851785Y-60380952D02*
X59899404Y-60333333D01*
X59994642Y-60285714D01*
X60137500Y-60285714D01*
X60232738Y-60333333D01*
X60280357Y-60428571D01*
X60280357Y-60952380D01*
%TO.C,JP1*%
X142180952Y-68752380D02*
X142514285Y-69752380D01*
X142847619Y-68752380D01*
X143514285Y-69228571D02*
X143180952Y-69228571D01*
X143180952Y-69752380D02*
X143180952Y-68752380D01*
X143657142Y-68752380D01*
X144038095Y-69752380D02*
X144038095Y-68752380D01*
X144276190Y-68752380D01*
X144419047Y-68800000D01*
X144514285Y-68895238D01*
X144561904Y-68990476D01*
X144609523Y-69180952D01*
X144609523Y-69323809D01*
X144561904Y-69514285D01*
X144514285Y-69609523D01*
X144419047Y-69704761D01*
X144276190Y-69752380D01*
X144038095Y-69752380D01*
X145371428Y-69228571D02*
X145514285Y-69276190D01*
X145561904Y-69323809D01*
X145609523Y-69419047D01*
X145609523Y-69561904D01*
X145561904Y-69657142D01*
X145514285Y-69704761D01*
X145419047Y-69752380D01*
X145038095Y-69752380D01*
X145038095Y-68752380D01*
X145371428Y-68752380D01*
X145466666Y-68800000D01*
X145514285Y-68847619D01*
X145561904Y-68942857D01*
X145561904Y-69038095D01*
X145514285Y-69133333D01*
X145466666Y-69180952D01*
X145371428Y-69228571D01*
X145038095Y-69228571D01*
X146514285Y-69752380D02*
X146038095Y-69752380D01*
X146038095Y-68752380D01*
X146800000Y-69466666D02*
X147276190Y-69466666D01*
X146704761Y-69752380D02*
X147038095Y-68752380D01*
X147371428Y-69752380D01*
X147704761Y-69752380D02*
X147704761Y-68752380D01*
X148276190Y-69752380D01*
X148276190Y-68752380D01*
X148752380Y-69752380D02*
X148752380Y-68752380D01*
X149323809Y-69752380D02*
X148895238Y-69180952D01*
X149323809Y-68752380D02*
X148752380Y-69323809D01*
%TO.C,JP3*%
X148466666Y-76928571D02*
X148133333Y-76928571D01*
X148133333Y-77452380D02*
X148133333Y-76452380D01*
X148609523Y-76452380D01*
X148942857Y-76547619D02*
X148990476Y-76500000D01*
X149085714Y-76452380D01*
X149323809Y-76452380D01*
X149419047Y-76500000D01*
X149466666Y-76547619D01*
X149514285Y-76642857D01*
X149514285Y-76738095D01*
X149466666Y-76880952D01*
X148895238Y-77452380D01*
X149514285Y-77452380D01*
%TO.C,BT1*%
X60995238Y-82257142D02*
X61042857Y-82304761D01*
X61185714Y-82352380D01*
X61280952Y-82352380D01*
X61423809Y-82304761D01*
X61519047Y-82209523D01*
X61566666Y-82114285D01*
X61614285Y-81923809D01*
X61614285Y-81780952D01*
X61566666Y-81590476D01*
X61519047Y-81495238D01*
X61423809Y-81400000D01*
X61280952Y-81352380D01*
X61185714Y-81352380D01*
X61042857Y-81400000D01*
X60995238Y-81447619D01*
X59995238Y-82352380D02*
X60328571Y-81876190D01*
X60566666Y-82352380D02*
X60566666Y-81352380D01*
X60185714Y-81352380D01*
X60090476Y-81400000D01*
X60042857Y-81447619D01*
X59995238Y-81542857D01*
X59995238Y-81685714D01*
X60042857Y-81780952D01*
X60090476Y-81828571D01*
X60185714Y-81876190D01*
X60566666Y-81876190D01*
X59614285Y-81447619D02*
X59566666Y-81400000D01*
X59471428Y-81352380D01*
X59233333Y-81352380D01*
X59138095Y-81400000D01*
X59090476Y-81447619D01*
X59042857Y-81542857D01*
X59042857Y-81638095D01*
X59090476Y-81780952D01*
X59661904Y-82352380D01*
X59042857Y-82352380D01*
X58423809Y-81352380D02*
X58328571Y-81352380D01*
X58233333Y-81400000D01*
X58185714Y-81447619D01*
X58138095Y-81542857D01*
X58090476Y-81733333D01*
X58090476Y-81971428D01*
X58138095Y-82161904D01*
X58185714Y-82257142D01*
X58233333Y-82304761D01*
X58328571Y-82352380D01*
X58423809Y-82352380D01*
X58519047Y-82304761D01*
X58566666Y-82257142D01*
X58614285Y-82161904D01*
X58661904Y-81971428D01*
X58661904Y-81733333D01*
X58614285Y-81542857D01*
X58566666Y-81447619D01*
X58519047Y-81400000D01*
X58423809Y-81352380D01*
X57757142Y-81352380D02*
X57138095Y-81352380D01*
X57471428Y-81733333D01*
X57328571Y-81733333D01*
X57233333Y-81780952D01*
X57185714Y-81828571D01*
X57138095Y-81923809D01*
X57138095Y-82161904D01*
X57185714Y-82257142D01*
X57233333Y-82304761D01*
X57328571Y-82352380D01*
X57614285Y-82352380D01*
X57709523Y-82304761D01*
X57757142Y-82257142D01*
X56757142Y-81447619D02*
X56709523Y-81400000D01*
X56614285Y-81352380D01*
X56376190Y-81352380D01*
X56280952Y-81400000D01*
X56233333Y-81447619D01*
X56185714Y-81542857D01*
X56185714Y-81638095D01*
X56233333Y-81780952D01*
X56804761Y-82352380D01*
X56185714Y-82352380D01*
D12*
%TO.C,U3*%
X151710000Y-54890000D02*
X151710000Y-56150000D01*
X147950000Y-61710000D02*
X151710000Y-61710000D01*
X151710000Y-61710000D02*
X151710000Y-60450000D01*
X145700000Y-54890000D02*
X151710000Y-54890000D01*
%TO.C,TP4*%
X156200000Y-74300000D02*
G75*
G03*
X156200000Y-74300000I-700000J0D01*
G01*
%TO.C,M1*%
X53980000Y-55220000D02*
X53980000Y-56550000D01*
X51380000Y-55220000D02*
X51380000Y-57880000D01*
X51380000Y-57880000D02*
X43700000Y-57880000D01*
X43700000Y-55220000D02*
X43700000Y-57880000D01*
X52650000Y-55220000D02*
X53980000Y-55220000D01*
X51380000Y-55220000D02*
X43700000Y-55220000D01*
%TO.C,C4*%
X139888748Y-55290000D02*
X141311252Y-55290000D01*
X139888748Y-57110000D02*
X141311252Y-57110000D01*
%TO.C,U1*%
X129020000Y-73300000D02*
X129020000Y-72900000D01*
X129020000Y-63300000D02*
X129020000Y-62900000D01*
X129020000Y-65300000D02*
X129020000Y-64900000D01*
X112780000Y-67300000D02*
X112780000Y-66900000D01*
X111750000Y-59600000D02*
X111750000Y-60600000D01*
X129020000Y-67300000D02*
X129020000Y-66900000D01*
X129020000Y-61300000D02*
X129020000Y-60900000D01*
X112780000Y-61300000D02*
X112780000Y-60900000D01*
X129020000Y-75720000D02*
X112780000Y-75720000D01*
X112780000Y-75720000D02*
X112780000Y-74900000D01*
X129020000Y-74900000D02*
X129020000Y-75720000D01*
X112780000Y-71300000D02*
X112780000Y-70900000D01*
X129020000Y-69300000D02*
X129020000Y-68900000D01*
X112780000Y-69300000D02*
X112780000Y-68900000D01*
X129020000Y-71300000D02*
X129020000Y-70900000D01*
X112780000Y-73300000D02*
X112780000Y-72900000D01*
X112780000Y-63300000D02*
X112780000Y-62900000D01*
X112780000Y-65300000D02*
X112780000Y-64900000D01*
%TO.C,C6*%
X69423752Y-61535000D02*
X68901248Y-61535000D01*
X69423752Y-60065000D02*
X68901248Y-60065000D01*
%TO.C,R2*%
X134272936Y-70235000D02*
X134727064Y-70235000D01*
X134272936Y-68765000D02*
X134727064Y-68765000D01*
%TO.C,R4*%
X134727064Y-63365000D02*
X134272936Y-63365000D01*
X134727064Y-64835000D02*
X134272936Y-64835000D01*
%TO.C,R5*%
X91072936Y-63935000D02*
X91527064Y-63935000D01*
X91072936Y-62465000D02*
X91527064Y-62465000D01*
%TO.C,R3*%
X134727064Y-66835000D02*
X134272936Y-66835000D01*
X134727064Y-65365000D02*
X134272936Y-65365000D01*
%TO.C,Q1*%
X139150000Y-71360000D02*
X138500000Y-71360000D01*
X139150000Y-71360000D02*
X139800000Y-71360000D01*
X139150000Y-68240000D02*
X139800000Y-68240000D01*
X139150000Y-68240000D02*
X137475000Y-68240000D01*
%TO.C,J5*%
X159970000Y-78210000D02*
X162630000Y-78210000D01*
X159970000Y-60370000D02*
X162630000Y-60370000D01*
X159970000Y-60370000D02*
X159970000Y-78210000D01*
X159970000Y-57770000D02*
X161300000Y-57770000D01*
X162630000Y-60370000D02*
X162630000Y-78210000D01*
X159970000Y-59100000D02*
X159970000Y-57770000D01*
%TO.C,J4*%
X39670000Y-71545000D02*
X41000000Y-71545000D01*
X39670000Y-74145000D02*
X39670000Y-79285000D01*
X42330000Y-74145000D02*
X42330000Y-79285000D01*
X39670000Y-79285000D02*
X42330000Y-79285000D01*
X39670000Y-72875000D02*
X39670000Y-71545000D01*
X39670000Y-74145000D02*
X42330000Y-74145000D01*
%TO.C,J3*%
X79270000Y-57930000D02*
X94570000Y-57930000D01*
X79270000Y-55270000D02*
X94570000Y-55270000D01*
X94570000Y-57930000D02*
X94570000Y-55270000D01*
X79270000Y-57930000D02*
X79270000Y-55270000D01*
X76670000Y-57930000D02*
X76670000Y-56600000D01*
X78000000Y-57930000D02*
X76670000Y-57930000D01*
%TO.C,R1*%
X48622936Y-63865000D02*
X49077064Y-63865000D01*
X48622936Y-65335000D02*
X49077064Y-65335000D01*
%TO.C,M2*%
X66930000Y-55220000D02*
X66930000Y-57880000D01*
X66930000Y-57880000D02*
X59250000Y-57880000D01*
X59250000Y-55220000D02*
X59250000Y-57880000D01*
X68200000Y-55220000D02*
X69530000Y-55220000D01*
X69530000Y-55220000D02*
X69530000Y-56550000D01*
X66930000Y-55220000D02*
X59250000Y-55220000D01*
%TO.C,C1*%
X115965000Y-78261252D02*
X115965000Y-77738748D01*
X117435000Y-78261252D02*
X117435000Y-77738748D01*
%TO.C,TP5*%
X156200000Y-77000000D02*
G75*
G03*
X156200000Y-77000000I-700000J0D01*
G01*
%TO.C,J2*%
X168890000Y-75360000D02*
X168890000Y-74910000D01*
X173890000Y-69790000D02*
X173680000Y-69790000D01*
X168890000Y-75360000D02*
X169280000Y-75360000D01*
X173890000Y-77410000D02*
X173680000Y-77410000D01*
X169590000Y-77410000D02*
X169590000Y-76750000D01*
X171320000Y-69790000D02*
X169590000Y-69790000D01*
X171320000Y-77410000D02*
X169590000Y-77410000D01*
X169590000Y-69790000D02*
X169590000Y-70440000D01*
%TO.C,J1*%
X174465000Y-66170000D02*
X173005000Y-66170000D01*
X168955000Y-57230000D02*
X170755000Y-57230000D01*
X174465000Y-57230000D02*
X173005000Y-57230000D01*
X168955000Y-66170000D02*
X170755000Y-66170000D01*
X174465000Y-57230000D02*
X174465000Y-66170000D01*
%TO.C,C2*%
X166535000Y-73361252D02*
X166535000Y-72838748D01*
X165065000Y-73361252D02*
X165065000Y-72838748D01*
%TO.C,U2*%
X58500000Y-62340000D02*
X54640000Y-62340000D01*
X58500000Y-72860000D02*
X54640000Y-72860000D01*
X54640000Y-62340000D02*
X54640000Y-62595000D01*
X62360000Y-62340000D02*
X62360000Y-62595000D01*
X54640000Y-62595000D02*
X52825000Y-62595000D01*
X58500000Y-62340000D02*
X62360000Y-62340000D01*
X58500000Y-72860000D02*
X62360000Y-72860000D01*
X54640000Y-72860000D02*
X54640000Y-72605000D01*
X62360000Y-72860000D02*
X62360000Y-72605000D01*
%TO.C,TP2*%
X47900000Y-61600000D02*
G75*
G03*
X47900000Y-61600000I-700000J0D01*
G01*
%TO.C,BZ1*%
X139845000Y-77055000D02*
X139845000Y-77055000D01*
X134345000Y-73555000D02*
X134345000Y-76105000D01*
X139845000Y-75755000D02*
X139845000Y-73555000D01*
X134345000Y-72155000D02*
X139845000Y-72155000D01*
X134345000Y-72155000D02*
X134345000Y-72255000D01*
X139845000Y-77155000D02*
X139845000Y-77055000D01*
X139845000Y-77155000D02*
X135245000Y-77155000D01*
X139845000Y-72255000D02*
X139845000Y-72155000D01*
X135245000Y-77155000D02*
X134345000Y-76105000D01*
%TO.C,TP3*%
X156200000Y-69300000D02*
G75*
G03*
X156200000Y-69300000I-700000J0D01*
G01*
%TO.C,JP2*%
X149800000Y-74600000D02*
X149800000Y-74000000D01*
X152600000Y-74000000D02*
X152600000Y-74600000D01*
X150500000Y-73300000D02*
X151900000Y-73300000D01*
X151900000Y-75300000D02*
X150500000Y-75300000D01*
X152600000Y-74000000D02*
G75*
G03*
X151900000Y-73300000I-700000J0D01*
G01*
X149800000Y-74600000D02*
G75*
G03*
X150500000Y-75300000I699999J-1D01*
G01*
X150500000Y-73300000D02*
G75*
G03*
X149800000Y-74000000I-1J-699999D01*
G01*
X151900000Y-75300000D02*
G75*
G03*
X152600000Y-74600000I0J700000D01*
G01*
%TO.C,D1*%
X140937500Y-64015000D02*
X136877500Y-64015000D01*
X136877500Y-66285000D02*
X140937500Y-66285000D01*
X136877500Y-64015000D02*
X136877500Y-66285000D01*
%TO.C,TP1*%
X49750000Y-68200000D02*
G75*
G03*
X49750000Y-68200000I-700000J0D01*
G01*
%TO.C,RV1*%
X102005000Y-73100000D02*
X102755000Y-73850000D01*
X81791000Y-78470000D02*
X103720000Y-78470000D01*
X75135000Y-78470000D02*
X78520000Y-78470000D01*
X74580000Y-72600000D02*
X75080000Y-72100000D01*
X102755000Y-72350000D02*
X102755000Y-75350000D01*
X110375000Y-69230000D02*
X110375000Y-71644000D01*
X105791000Y-69230000D02*
X110375000Y-69230000D01*
X83505000Y-73100000D02*
X82755000Y-73850000D01*
X75135000Y-73275000D02*
X75135000Y-75145000D01*
X106991000Y-78470000D02*
X110375000Y-78470000D01*
X82755000Y-73850000D02*
X83505000Y-74600000D01*
X82755000Y-72350000D02*
X82755000Y-75350000D01*
X75135000Y-76056000D02*
X75135000Y-78470000D01*
X82991000Y-69230000D02*
X102520000Y-69230000D01*
X75080000Y-72100000D02*
X74580000Y-71600000D01*
X82755000Y-73850000D02*
X102755000Y-73850000D01*
X102755000Y-73850000D02*
X102005000Y-74600000D01*
X74580000Y-71600000D02*
X74580000Y-72600000D01*
X110375000Y-72556000D02*
X110375000Y-78470000D01*
X75135000Y-69230000D02*
X79720000Y-69230000D01*
X75135000Y-69230000D02*
X75135000Y-70925000D01*
%TO.C,C3*%
X139926248Y-61010000D02*
X141348752Y-61010000D01*
X139926248Y-59190000D02*
X141348752Y-59190000D01*
%TO.C,C5*%
X55161252Y-61535000D02*
X54638748Y-61535000D01*
X55161252Y-60065000D02*
X54638748Y-60065000D01*
%TO.C,JP1*%
X149800000Y-69600000D02*
X149800000Y-69000000D01*
X151900000Y-70300000D02*
X150500000Y-70300000D01*
X152600000Y-69000000D02*
X152600000Y-69600000D01*
X150500000Y-68300000D02*
X151900000Y-68300000D01*
X151900000Y-70300000D02*
G75*
G03*
X152600000Y-69600000I0J700000D01*
G01*
X149800000Y-69600000D02*
G75*
G03*
X150500000Y-70300000I699999J-1D01*
G01*
X152600000Y-69000000D02*
G75*
G03*
X151900000Y-68300000I-700000J0D01*
G01*
X150500000Y-68300000D02*
G75*
G03*
X149800000Y-69000000I-1J-699999D01*
G01*
%TO.C,JP3*%
X150500000Y-76000000D02*
X151900000Y-76000000D01*
X151900000Y-78000000D02*
X150500000Y-78000000D01*
X149800000Y-77300000D02*
X149800000Y-76700000D01*
X152600000Y-76700000D02*
X152600000Y-77300000D01*
X149800000Y-77300000D02*
G75*
G03*
X150500000Y-78000000I699999J-1D01*
G01*
X150500000Y-76000000D02*
G75*
G03*
X149800000Y-76700000I-1J-699999D01*
G01*
X151900000Y-78000000D02*
G75*
G03*
X152600000Y-77300000I0J700000D01*
G01*
X152600000Y-76700000D02*
G75*
G03*
X151900000Y-76000000I-700000J0D01*
G01*
%TD*%
M02*
