%TF.GenerationSoftware,KiCad,Pcbnew,(6.0.6-0)*%
%TF.CreationDate,2022-07-18T23:29:11+08:00*%
%TF.ProjectId,main,6d61696e-2e6b-4696-9361-645f70636258,rev?*%
%TF.SameCoordinates,Original*%
%TF.FileFunction,Soldermask,Bot*%
%TF.FilePolarity,Negative*%
%FSLAX46Y46*%
G04 Gerber Fmt 4.6, Leading zero omitted, Abs format (unit mm)*
G04 Created by KiCad (PCBNEW (6.0.6-0)) date 2022-07-18 23:29:11*
%MOMM*%
%LPD*%
G01*
G04 APERTURE LIST*
%ADD10R,1.700000X1.700000*%
%ADD11O,1.700000X1.700000*%
%ADD12O,1.900000X1.050000*%
%ADD13C,0.600000*%
%ADD14O,2.000000X0.900000*%
%ADD15O,1.700000X0.900000*%
%ADD16R,1.750000X1.750000*%
%ADD17C,1.750000*%
%ADD18C,2.700000*%
%ADD19R,5.100000X5.100000*%
%ADD20C,17.800000*%
G04 APERTURE END LIST*
D10*
%TO.C,M1*%
X52650000Y-56550000D03*
D11*
X50110000Y-56550000D03*
X47570000Y-56550000D03*
X45030000Y-56550000D03*
%TD*%
D10*
%TO.C,J5*%
X161300000Y-59100000D03*
D11*
X161300000Y-61640000D03*
X161300000Y-64180000D03*
X161300000Y-66720000D03*
X161300000Y-69260000D03*
X161300000Y-71800000D03*
X161300000Y-74340000D03*
X161300000Y-76880000D03*
%TD*%
D10*
%TO.C,J4*%
X41000000Y-72875000D03*
D11*
X41000000Y-75415000D03*
X41000000Y-77955000D03*
%TD*%
D10*
%TO.C,J3*%
X78000000Y-56600000D03*
D11*
X80540000Y-56600000D03*
X83080000Y-56600000D03*
X85620000Y-56600000D03*
X88160000Y-56600000D03*
X90700000Y-56600000D03*
X93240000Y-56600000D03*
%TD*%
D10*
%TO.C,M2*%
X68200000Y-56550000D03*
D11*
X65660000Y-56550000D03*
X63120000Y-56550000D03*
X60580000Y-56550000D03*
%TD*%
D12*
%TO.C,J2*%
X172500000Y-77175000D03*
X172500000Y-70025000D03*
%TD*%
D13*
%TO.C,J1*%
X168175000Y-58810000D03*
X168175000Y-64590000D03*
D14*
X167695000Y-57380000D03*
X167695000Y-66020000D03*
D15*
X171865000Y-66020000D03*
X171865000Y-57380000D03*
%TD*%
D16*
%TO.C,RV1*%
X76255000Y-72100000D03*
D17*
X76255000Y-75600000D03*
X109255000Y-72100000D03*
D18*
X81355000Y-69650000D03*
X80155000Y-78050000D03*
X104155000Y-69650000D03*
X105355000Y-78050000D03*
%TD*%
D19*
%TO.C,BT1*%
X46100000Y-70900000D03*
X71700000Y-70900000D03*
D20*
X58900000Y-70900000D03*
%TD*%
G36*
X137440143Y-54020002D02*
G01*
X137486636Y-54073658D01*
X137498022Y-54126026D01*
X137497034Y-58842587D01*
X137477018Y-58910704D01*
X137423352Y-58957186D01*
X137371039Y-58968561D01*
X98024651Y-58969994D01*
X97956529Y-58949994D01*
X97910034Y-58896340D01*
X97898646Y-58843994D01*
X97898646Y-54126000D01*
X97918648Y-54057879D01*
X97972304Y-54011386D01*
X98024646Y-54000000D01*
X137372022Y-54000000D01*
X137440143Y-54020002D01*
G37*
M02*
